<?xml version="1.0" encoding="UTF-8" standalone="no"?>
<!DOCTYPE svg PUBLIC "-//W3C//DTD SVG 1.1//EN" "http://www.w3.org/Graphics/SVG/1.1/DTD/svg11.dtd">
<svg width="24px" height="24px" version="1.1" xmlns="http://www.w3.org/2000/svg" xmlns:xlink="http://www.w3.org/1999/xlink" xml:space="preserve">
    <g transform="matrix(1.12283,0,0,1.113,-2.55357,-0.40643)" style="fill-rule:evenodd;clip-rule:evenodd;stroke-linejoin:round;stroke-miterlimit:1.41421;">
        <g>
            <path d="M12.962,0.365c5.898,0 10.687,4.831 10.687,10.782c0,5.95 -4.789,10.781 -10.687,10.781c-5.899,0 -10.688,-4.831 -10.688,-10.781c0,-5.951 4.789,-10.782 10.688,-10.782ZM12.962,3.109c4.397,0 7.967,3.601 7.967,8.038c0,4.436 -3.57,8.038 -7.967,8.038c-4.398,0 -7.968,-3.602 -7.968,-8.038c0,-4.437 3.57,-8.038 7.968,-8.038Z" style="fill:#000;"/>
        </g>
    </g>
    <g id="Oval-3" transform="matrix(0.0315338,0,0,0.0312578,-0.156282,0.184538)">
        <path d="M385.5,610c-100.733,0 -186.242,-65.183 -216.649,-155.672c46.084,58.554 104.071,73.843 184.958,79.076l0,-324.423l-67.809,0l0,-41.981l67.809,0l0,-21l63.382,0l0,21l67.809,0l0,41.981l-67.809,0l0,324.423c80.887,-5.233 138.874,-20.522 184.958,-79.076c-30.407,90.489 -115.916,155.672 -216.649,155.672Z" style="fill:#000;"/>
    </g>
</svg>
