<?xml version="1.0" encoding="UTF-8" standalone="no"?>
<!DOCTYPE svg PUBLIC "-//W3C//DTD SVG 1.1//EN" "http://www.w3.org/Graphics/SVG/1.1/DTD/svg11.dtd">
<svg width="37px" height="30px" version="1.1" xmlns="http://www.w3.org/2000/svg" xmlns:xlink="http://www.w3.org/1999/xlink" xml:space="preserve" style="fill-rule:evenodd;clip-rule:evenodd;stroke-linecap:round;stroke-linejoin:round;stroke-miterlimit:1.41421;">
    <g transform="matrix(1,0,0,1,0.314188,-3)" style="fill-rule:evenodd;clip-rule:evenodd;stroke-linecap:round;stroke-linejoin:round;stroke-miterlimit:1.41421;">
        <g transform="matrix(1.66667,0,0,1.66667,3,3)">
            <g transform="matrix(0.834752,0,0,0.834752,-1.81966,-0.304823)">
                <path d="M12.962,0.365c5.898,0 10.687,4.831 10.687,10.782c0,5.95 -4.789,10.781 -10.687,10.781c-5.899,0 -10.688,-4.831 -10.688,-10.781c0,-5.951 4.789,-10.782 10.688,-10.782ZM12.962,3.109c4.397,0 7.967,3.601 7.967,8.038c0,4.436 -3.57,8.038 -7.967,8.038c-4.398,0 -7.968,-3.602 -7.968,-8.038c0,-4.437 3.57,-8.038 7.968,-8.038Z" style="fill:#000;"/>
            </g>
            <g transform="matrix(1.67585,0,0,1.67585,1.48842,2.2308)">
                <circle cx="4.482" cy="4.039" r="4.004" style="fill:#fff;stroke-width:0.36px;stroke:#fff;"/>
            </g>
            <g id="Path-1-copy" transform="matrix(0.0197854,0,0,0.0197854,-1.7508,1.31335)">
                <path d="M218.023,407.068c-67.789,13.007 -157.291,-13.195 -157.291,-13.195c0,0 94.76,-9.961 167.971,-44.455c68.001,-32.041 143.4,-63.973 181.266,-67.954c78.633,-8.266 96.73,91.513 109.761,91.985c13.031,0.472 68.732,-69.183 112.855,-84.838c44.122,-15.655 142.182,26.745 278.381,92.403c50.323,24.259 115.041,52.856 115.041,52.856c0,0 -70.169,17.332 -144.148,0c-23.898,-5.598 -69.175,-19.899 -93.757,-26.802c-80.233,-22.531 -108.125,-33.147 -143.704,-26.054c-31.941,6.367 -49.125,34.433 -101.029,75.126c-4.4,3.45 -19.3,0.921 -23.639,4.538c-13.456,11.22 -19.08,35.345 -19.08,35.345c0,0 -31.936,-22.537 -40.615,-51.869c-4.482,-15.146 14.293,-37.086 14.293,-37.086c0,0 -25.268,-57.208 -86.939,-45.414c-30.317,5.798 -103.817,32.837 -169.366,45.414Z" style="fill:#fff;"/>
                <path d="M421.442,238.998l2.598,0.078l2.583,0.132l2.564,0.187l2.546,0.242l2.527,0.294l2.507,0.349l2.485,0.4l2.461,0.453l2.438,0.503l2.412,0.553l2.385,0.602l2.358,0.65l2.329,0.697l2.298,0.742l2.269,0.786l2.236,0.828l2.203,0.87l2.171,0.909l2.137,0.948l2.101,0.984l2.067,1.019l2.032,1.052l1.996,1.085l1.96,1.114l1.924,1.143l1.887,1.17l1.853,1.196l1.815,1.22l1.78,1.242l1.745,1.263l1.709,1.283l1.674,1.301l1.639,1.318l1.73,1.436l2.982,2.598l2.978,2.756l2.852,2.795l2.73,2.825l2.611,2.848l2.499,2.863l2.391,2.871l2.288,2.874l2.188,2.869l2.093,2.86l2.003,2.843l1.916,2.824l1.833,2.796l1.753,2.765l1.677,2.727l1.126,1.885l5.322,-4.916l4.2,-3.828l4.311,-3.877l4.437,-3.924l4.558,-3.949l4.674,-3.953l4.717,-3.878l2.496,-2.004l2.463,-1.942l2.491,-1.928l2.52,-1.91l2.549,-1.891l2.579,-1.868l2.609,-1.844l2.642,-1.816l2.677,-1.786l2.712,-1.752l2.75,-1.718l2.792,-1.679l2.835,-1.636l2.882,-1.591l2.935,-1.542l2.99,-1.488l3.051,-1.429l3.118,-1.366l3.191,-1.295l3.191,-1.187l2.059,-0.703l2.001,-0.631l2.001,-0.58l1.999,-0.531l2.001,-0.485l1.999,-0.441l1.997,-0.396l1.994,-0.355l1.992,-0.315l2.175,-0.302l3.776,-0.421l3.962,-0.305l3.955,-0.176l3.95,-0.058l3.949,0.054l3.951,0.158l3.957,0.256l3.968,0.35l3.982,0.439l4,0.523l4.021,0.605l4.045,0.682l4.072,0.759l4.103,0.832l4.136,0.903l4.171,0.972l4.209,1.041l4.248,1.106l4.289,1.172l4.332,1.235l4.377,1.298l4.423,1.359l4.469,1.419l4.518,1.479l4.566,1.538l4.617,1.596l4.667,1.652l4.719,1.708l4.77,1.764l4.824,1.818l4.876,1.872l4.929,1.925l4.983,1.977l5.037,2.029l5.092,2.079l5.146,2.129l5.239,2.195l10.524,4.484l10.785,4.691l11.006,4.873l11.224,5.05l11.444,5.221l11.662,5.386l11.879,5.545l12.095,5.699l12.31,5.846l12.521,5.987l12.67,6.093l9.474,4.538l9.653,4.572l9.781,4.589l9.789,4.554l9.677,4.471l9.43,4.328l17.755,8.085l15.402,6.951l12.128,5.434l55.18,24.542l-4.525,48.377l-48.32,11.415l-2.992,0.662l-4.421,0.9l-2.884,0.547l-3.142,0.566l-3.473,0.59l-3.791,0.603l-4.098,0.608l-4.394,0.603l-4.679,0.586l-4.952,0.561l-5.216,0.525l-5.466,0.478l-5.707,0.422l-5.937,0.355l-6.155,0.278l-6.277,0.186l-3.338,0.06l-3.304,0.032l-3.35,0.005l-3.396,-0.024l-3.44,-0.055l-3.481,-0.086l-3.523,-0.119l-3.564,-0.154l-3.601,-0.189l-3.639,-0.227l-3.674,-0.266l-3.709,-0.306l-3.741,-0.348l-3.774,-0.392l-3.804,-0.436l-3.832,-0.483l-3.861,-0.53l-3.886,-0.581l-3.911,-0.631l-3.934,-0.684l-3.956,-0.739l-3.977,-0.794l-3.995,-0.853l-4.044,-0.919l-5.302,-1.289l-5.638,-1.451l-5.899,-1.581l-6.131,-1.695l-6.323,-1.788l-6.493,-1.869l-13.115,-3.844l-25.513,-7.588l-11.415,-3.368l-5.068,-1.47l-4.704,-1.338l-14.461,-4.088l-13.359,-3.811l-12.212,-3.487l-11.125,-3.148l-10.157,-2.809l-4.639,-1.249l-4.443,-1.166l-4.21,-1.071l-3.984,-0.975l-3.765,-0.879l-3.551,-0.784l-3.345,-0.69l-3.146,-0.597l-2.956,-0.506l-2.776,-0.42l-2.609,-0.337l-2.455,-0.259l-2.462,-0.197l-0.977,-0.059l-1.086,-0.051l-1.063,-0.034l-1.042,-0.019l-1.024,-0.003l-1.009,0.011l-0.997,0.026l-0.99,0.041l-0.985,0.056l-0.983,0.071l-0.986,0.086l-0.992,0.102l-1,0.118l-1.013,0.135l-1.028,0.152l-1.047,0.171l-1.067,0.19l-0.993,0.19l-0.628,0.133l-0.511,0.121l-0.496,0.129l-0.485,0.139l-0.48,0.149l-0.479,0.161l-0.481,0.175l-0.488,0.19l-0.5,0.206l-0.513,0.227l-0.533,0.247l-0.552,0.272l-0.575,0.297l-0.602,0.326l-0.629,0.356l-0.658,0.389l-0.691,0.423l-0.721,0.459l-0.753,0.497l-0.671,0.457l-1.804,1.283l-1.815,1.361l-1.955,1.533l-2.095,1.708l-2.237,1.881l-2.378,2.053l-2.52,2.221l-2.639,2.361l-5.824,5.287l-6.375,5.819l-6.97,6.31l-3.789,3.387l-3.938,3.477l-4.118,3.587l-4.306,3.691l-4.499,3.789l-4.698,3.883l-4.904,3.971l-6.007,4.762l-3.382,2.34l-4.045,2.211l-3.614,1.583l-3.199,1.137l-2.83,0.819l-2.515,0.598l-2.246,0.438l-2.254,0.363l-0.69,0.084l-0.312,0.784l-0.546,1.493l-0.461,1.36l-0.364,1.159l-0.261,0.893l-0.136,0.497l-10.806,42.685l-20.157,7.209l-36.624,-27.04l-2.305,-1.78l-2.806,-2.258l-3.185,-2.68l-1.894,-1.651l-1.898,-1.7l-1.982,-1.824l-2.058,-1.948l-2.122,-2.073l-2.179,-2.197l-2.226,-2.323l-2.263,-2.45l-2.29,-2.578l-2.308,-2.709l-2.316,-2.843l-2.313,-2.978l-2.299,-3.12l-2.274,-3.266l-2.144,-3.276l-1.182,-1.898l-1.084,-1.807l-1.068,-1.847l-1.049,-1.888l-1.029,-1.931l-1.006,-1.975l-0.981,-2.018l-0.953,-2.064l-0.922,-2.109l-0.89,-2.156l-0.853,-2.203l-0.815,-2.251l-0.772,-2.299l-0.795,-2.572l-0.645,-2.384l-0.573,-2.593l-0.445,-2.548l-0.326,-2.493l-0.216,-2.432l-0.117,-2.368l-0.027,-2.301l0.053,-2.23l0.126,-2.162l0.189,-2.092l0.246,-2.024l0.337,-2.231l0.663,-3.434l0.858,-3.497l0.962,-3.282l1.043,-3.089l1.102,-2.912l0.978,-2.345l-0.327,-0.268l-0.712,-0.558l-0.722,-0.538l-0.73,-0.518l-0.738,-0.496l-0.745,-0.474l-0.753,-0.452l-0.761,-0.429l-0.769,-0.406l-0.778,-0.383l-0.788,-0.361l-0.799,-0.337l-0.812,-0.315l-0.828,-0.292l-0.846,-0.269l-0.866,-0.246l-0.892,-0.223l-0.92,-0.199l-0.952,-0.173l-0.988,-0.147l-1.03,-0.119l-1.075,-0.089l-1.125,-0.056l-1.181,-0.02l-1.24,0.02l-1.303,0.062l-1.373,0.11l-1.444,0.162l-1.52,0.219l-1.663,0.292l-1.988,0.405l-2.463,0.554l-2.852,0.691l-3.195,0.817l-3.506,0.936l-3.787,1.045l-4.047,1.145l-4.255,1.229l-9.275,2.736l-10,2.998l-10.676,3.215l-11.261,3.377l-11.763,3.482l-12.141,3.519l-6.261,1.778l-6.305,1.76l-6.375,1.746l-6.434,1.725l-6.487,1.698l-6.531,1.663l-6.566,1.622l-6.595,1.574l-6.616,1.519l-6.63,1.458l-6.637,1.389l-6.709,1.327l-3.89,0.709l-3.972,0.647l-3.968,0.575l-3.964,0.506l-3.958,0.44l-3.95,0.378l-3.942,0.317l-3.932,0.26l-3.92,0.205l-3.907,0.153l-3.892,0.103l-3.876,0.055l-3.858,0.01l-3.838,-0.033l-3.817,-0.074l-3.795,-0.114l-3.77,-0.15l-3.743,-0.186l-3.715,-0.22l-3.684,-0.25l-3.653,-0.281l-3.618,-0.308l-3.582,-0.335l-3.544,-0.359l-3.505,-0.382l-3.533,-0.412l-6.713,-0.853l-6.595,-0.928l-6.384,-0.979l-6.156,-1.019l-5.908,-1.046l-5.643,-1.059l-5.361,-1.062l-5.058,-1.051l-4.738,-1.028l-4.398,-0.993l-4.04,-0.947l-3.663,-0.887l-3.326,-0.832l-5.181,-1.35l-3.416,-0.935l-51.506,-14.674l5.187,-62.037l52.862,-5.876l2.747,-0.329l4.575,-0.594l6.312,-0.891l3.637,-0.545l4.045,-0.633l4.376,-0.715l4.683,-0.798l4.969,-0.883l5.233,-0.972l5.474,-1.061l5.693,-1.154l5.889,-1.247l6.063,-1.344l6.214,-1.44l6.343,-1.54l6.447,-1.641l6.594,-1.759l3.228,-0.893l3.299,-0.936l3.309,-0.961l3.315,-0.987l3.317,-1.014l3.317,-1.039l3.314,-1.065l3.309,-1.092l3.298,-1.117l3.287,-1.143l3.271,-1.169l3.253,-1.195l3.231,-1.22l3.207,-1.245l3.18,-1.271l3.148,-1.295l3.115,-1.319l3.077,-1.342l3.038,-1.367l3.164,-1.467l12.878,-6.024l13.14,-6.052l6.646,-3.021l6.625,-2.985l6.627,-2.956l6.622,-2.923l6.608,-2.885l6.589,-2.842l6.56,-2.794l6.525,-2.742l6.484,-2.684l6.436,-2.622l6.38,-2.556l6.319,-2.484l6.252,-2.407l6.178,-2.327l6.1,-2.241l6.018,-2.151l5.93,-2.057l5.84,-1.957l5.747,-1.853l5.654,-1.745l5.56,-1.632l5.469,-1.514l5.279,-1.363l2.755,-0.669l2.642,-0.613l2.626,-0.579l2.611,-0.543l2.598,-0.507l2.588,-0.469l2.582,-0.429l2.58,-0.388l2.582,-0.344l2.589,-0.297l2.665,-0.253l2.661,-0.199l2.651,-0.143l2.64,-0.088l2.627,-0.033l2.611,0.023ZM525.885,415.108l-4.002,0.329l-0.091,0.001l-1.384,1.686l1.219,-0.159l3.03,-0.276l0.863,-0.057l0.592,-0.479l1.687,-1.395l-1.914,0.35ZM652.872,327.38l-1.347,0.06l-1.186,0.092l-1.218,0.135l-0.265,0.037l-0.408,0.065l-0.368,0.065l-0.327,0.065l-0.284,0.063l-0.245,0.059l-0.207,0.055l-0.165,0.048l-0.127,0.04l-0.029,0.01l-0.962,0.358l-0.994,0.403l-1.095,0.48l-1.189,0.557l-1.273,0.633l-1.351,0.71l-1.422,0.785l-1.486,0.858l-1.544,0.928l-1.596,0.997l-1.644,1.062l-1.685,1.125l-1.725,1.185l-1.758,1.242l-1.788,1.296l-1.815,1.346l-1.839,1.394l-0.781,0.604l1.148,-0.416l2.312,-0.779l2.344,-0.729l2.371,-0.679l2.398,-0.625l2.421,-0.571l2.346,-0.496l2.331,-0.448l2.238,-0.398l2.241,-0.365l2.245,-0.333l2.25,-0.299l2.253,-0.266l2.256,-0.232l2.258,-0.197l2.26,-0.163l2.261,-0.128l2.261,-0.094l2.261,-0.059l2.26,-0.026l2.258,0.008l2.256,0.04l2.254,0.073l2.252,0.105l2.385,0.143l4.346,0.349l4.483,0.473l4.481,0.579l4.487,0.678l4.503,0.772l4.531,0.86l4.572,0.942l4.626,1.021l4.697,1.098l4.783,1.17l4.885,1.243l5.002,1.313l4.33,1.165l-0.746,-0.287l-4.335,-1.634l-4.253,-1.572l-4.172,-1.511l-4.088,-1.447l-4.003,-1.383l-3.917,-1.319l-3.828,-1.254l-3.739,-1.187l-3.648,-1.121l-3.554,-1.054l-3.459,-0.986l-3.361,-0.918l-3.261,-0.85l-3.158,-0.78l-3.052,-0.712l-2.945,-0.643l-2.833,-0.574l-2.719,-0.507l-2.6,-0.439l-2.478,-0.372l-2.352,-0.308l-2.222,-0.245l-2.087,-0.184l-1.948,-0.126l-1.805,-0.072l-1.656,-0.023l-1.504,0.022Z" style="fill:#000;"/>
            </g>
            <g id="Path-1" transform="matrix(0.0219844,0,0,0.0219844,-2.94567,0.459041)">
                <path d="M222.389,407.068c-66.879,13.007 -155.18,-13.195 -155.18,-13.195c0,0 93.489,-9.961 165.717,-44.455c67.089,-32.041 141.475,-63.973 178.833,-67.954c77.578,-8.266 95.432,91.513 108.288,91.985c12.857,0.472 67.81,-69.183 111.34,-84.838c43.531,-15.655 140.274,26.745 274.646,92.403c49.647,24.259 113.496,52.856 113.496,52.856c0,0 -69.226,17.332 -142.213,0c-23.577,-5.598 -68.246,-19.899 -92.499,-26.802c-79.156,-22.531 -106.673,-33.147 -141.775,-26.054c-31.512,6.367 -48.465,34.433 -99.673,75.126c-4.341,3.45 -19.041,0.921 -23.322,4.538c-13.275,11.22 -18.824,35.345 -18.824,35.345c0,0 -31.507,-22.537 -40.07,-51.869c-4.422,-15.146 14.102,-37.086 14.102,-37.086c0,0 -24.93,-57.208 -85.772,-45.414c-29.911,5.798 -102.424,32.837 -167.094,45.414Z" style="fill:#fff;stroke-width:1px;stroke-linecap:butt;stroke-linejoin:miter;stroke:#fff;"/>
            </g>
        </g>
    </g>
</svg>
