<?xml version="1.0" encoding="UTF-8" standalone="no"?>
<!DOCTYPE svg PUBLIC "-//W3C//DTD SVG 1.1//EN" "http://www.w3.org/Graphics/SVG/1.1/DTD/svg11.dtd">
<svg width="15px" height="11px" version="1.1" xmlns="http://www.w3.org/2000/svg" xmlns:xlink="http://www.w3.org/1999/xlink" xml:space="preserve" style="fill-rule:evenodd;clip-rule:evenodd;stroke-miterlimit:1.41421;">
    <g id="Rectangle-1" transform="matrix(0.00795973,0,0,0.00795973,-0.499524,-0.499524)">
        <path d="M1662.94,680.011c104.932,45.191 163.056,147.392 163.056,271.644c0,166.765 -147.33,302.306 -330.324,305.295c-3.983,1.33 -8.245,2.05 -12.676,2.05l-1066,0c-7.831,0 -15.138,-2.252 -21.308,-6.144c-120.329,-22.276 -211.692,-131.711 -211.692,-263.356c0,-133.554 94.033,-244.249 216.946,-264.27c-5.869,-28.692 -8.946,-58.362 -8.946,-88.73c0,-249.909 208.411,-452.5 465.5,-452.5c182.554,0 340.565,102.15 416.841,250.857c36.04,-17.83 76.672,-27.857 119.659,-27.857c148.565,0 269,119.764 269,267.5c0,1.842 -0.019,3.679 -0.056,5.511Z" style="fill:#fff;stroke-width:140px;stroke:#991104;"/>
    </g>
</svg>
