<?xml version="1.0" encoding="UTF-8" standalone="no"?>
<!DOCTYPE svg PUBLIC "-//W3C//DTD SVG 1.1//EN" "http://www.w3.org/Graphics/SVG/1.1/DTD/svg11.dtd">
<svg width="15px" height="18px" version="1.1" xmlns="http://www.w3.org/2000/svg" xmlns:xlink="http://www.w3.org/1999/xlink" xml:space="preserve" style="fill-rule:evenodd;clip-rule:evenodd;stroke-miterlimit:1.41421;">
    <g id="Rectangle-2" transform="matrix(0.0221893,0,0,0.0221893,0,0)">
        <path d="M25.168,512.857l25.367,0l0,-348.143l78.727,0l0,348.143l53.359,0l0,-250.143l78.726,0l0,250.143l182.821,0l0,250.143l-182.821,0l-78.726,0l-157.453,0l0,-250.143ZM76.267,157.378c-10.233,-10.742 -0.285,-91.783 66.254,-120.09c66.539,-28.307 191.287,58.785 257.601,54.148c66.315,-4.637 248.563,-75.11 248.563,-75.11c0,0 -82.988,86.828 -204.517,126.674c-121.529,39.846 -181.911,-38.106 -237.195,-38.058c-55.284,0.049 -120.472,63.178 -130.706,52.436ZM217.864,250.734c-6.751,-7.764 -0.596,-65.951 42.863,-85.993c43.459,-20.043 125.563,43.092 168.981,40.056c43.417,-3.036 162.483,-52.86 162.483,-52.86c0,0 -53.973,62.019 -133.402,90.107c-79.428,28.089 -119.328,-28.192 -155.541,-28.404c-36.213,-0.212 -78.633,44.858 -85.384,37.094Z" style="fill:#1a1a1a;stroke-width:1px;stroke:#000;"/>
    </g>
</svg>
