<?xml version="1.0" encoding="UTF-8" standalone="no"?>
<!DOCTYPE svg PUBLIC "-//W3C//DTD SVG 1.1//EN" "http://www.w3.org/Graphics/SVG/1.1/DTD/svg11.dtd">
<svg width="31px" height="24px" version="1.1" xmlns="http://www.w3.org/2000/svg" xmlns:xlink="http://www.w3.org/1999/xlink" xml:space="preserve" style="fill-rule:evenodd;clip-rule:evenodd;stroke-linecap:round;stroke-linejoin:round;stroke-miterlimit:1.41421;">
    <g transform="matrix(1,0,0,1,-1.01588,-4)" style="fill-rule:evenodd;clip-rule:evenodd;stroke-linecap:round;stroke-linejoin:round;stroke-miterlimit:1.41421;">
        <g transform="matrix(1.65099,0,0,1.65099,-3.39398,-3.81189)">
            <g transform="matrix(1.35341,0,0,1.35341,5.93368,6.53322)">
                <circle cx="4.482" cy="4.039" r="4.004" style="fill:#fff;stroke-width:0.45px;stroke:#fff;"/>
            </g>
            <g transform="matrix(0.674143,0,0,0.674143,3.02011,4.48546)">
                <path d="M12.962,0.365c5.898,0 10.687,4.831 10.687,10.782c0,5.95 -4.789,10.781 -10.687,10.781c-5.899,0 -10.688,-4.831 -10.688,-10.781c0,-5.951 4.789,-10.782 10.688,-10.782ZM12.962,3.109c4.397,0 7.967,3.601 7.967,8.038c0,4.436 -3.57,8.038 -7.967,8.038c-4.398,0 -7.968,-3.602 -7.968,-8.038c0,-4.437 3.57,-8.038 7.968,-8.038Z" style="fill:#000;"/>
            </g>
            <g id="Path-3" transform="matrix(0.0189657,0,0,0.01902,2.84286,4.12488)">
                <path d="M862,197.551c0,-43.163 -60.131,-43.617 -68.086,-11.551c-7.955,32.066 -20,120 -20,120c0,0 -46.72,-20.335 -66.72,-31.802c-20,-11.468 -42.947,2.972 -35.441,25.802c7.506,22.83 50.247,46 50.247,46l-276.805,49.21l-371.281,-181.012c0,0 -43.092,-20.155 -60,0c-16.908,20.155 9.666,60 9.666,60l298.95,160c0,0 -0.514,44.377 -29.943,49.306c-29.428,4.929 -36.192,-45.159 -89.473,-29.306c-53.281,15.852 -117.286,88.197 -89.2,120c28.086,31.802 172.078,-8.176 172.078,-8.176c0,0 23.515,19.696 48.091,13.551c24.577,-6.144 39.831,-45.375 39.831,-45.375c0,0 17.975,-30.121 26.317,-37.634c6.16,-5.549 23.732,-7.444 23.732,-7.444l425.989,167.161c0,0 91.663,-10.923 91.663,-42.725c0,-31.802 -32.376,-48.057 -32.376,-48.057l-361.023,-125.784l258.719,-59.865c0,0 123.151,7.722 135.065,0c11.914,-7.721 20.24,-7.243 12.154,-27.243c-8.086,-20 -92.154,-26.607 -92.154,-26.607l0,-128.449Z" style="fill:#000;stroke-width:20px;stroke-linecap:butt;stroke-linejoin:miter;stroke:#feffff;"/>
            </g>
            <g transform="matrix(1.80418,0,0,1.0762,-6.07969,2.05584)">
                <ellipse cx="8.538" cy="8.261" rx="0.462" ry="1.607" style="fill:#000;stroke-width:0.1px;stroke:#fff;"/>
            </g>
        </g>
    </g>
</svg>
