<?xml version="1.0" encoding="UTF-8" standalone="no"?>
<!DOCTYPE svg PUBLIC "-//W3C//DTD SVG 1.1//EN" "http://www.w3.org/Graphics/SVG/1.1/DTD/svg11.dtd">
<svg width="24px" height="24px" version="1.1" xmlns="http://www.w3.org/2000/svg" xmlns:xlink="http://www.w3.org/1999/xlink" xml:space="preserve" style="fill-rule:evenodd;clip-rule:evenodd;stroke-linecap:round;stroke-linejoin:round;stroke-miterlimit:1.41421;">
    <g transform="matrix(1.63428,0,0,1.63428,-7.61141,-7.61141)">
        <g transform="matrix(1.00221,0,0,1.01105,2.95987,2.80484)">
            <path d="M12.615,2.869c-1.093,-0.631 -2.333,-0.963 -3.595,-0.963l0,1.114c1.067,0 2.114,0.28 3.038,0.813l0.557,-0.964Z" style="fill:#000;"/>
        </g>
        <g transform="matrix(1.00221,0,0,1.01105,2.95987,2.80484)">
            <path d="M12.615,2.869c-1.093,-0.631 -2.333,-0.963 -3.595,-0.963l0,1.114c1.067,0 2.114,0.28 3.038,0.813l0.557,-0.964Z" style="fill:#000;"/>
        </g>
        <g transform="matrix(0.708666,0.708666,-0.714923,0.714923,12.1096,-0.894297)">
            <path d="M12.615,2.869c-1.093,-0.631 -2.333,-0.963 -3.595,-0.963l0,1.114c1.067,0 2.114,0.28 3.038,0.813l0.557,-0.964Z" style="fill:#000;"/>
        </g>
        <g transform="matrix(3.33067e-16,1.00221,-1.01105,3.33067e-16,21.1952,2.95987)">
            <path d="M12.615,2.869c-1.093,-0.631 -2.333,-0.963 -3.595,-0.963l0,1.114c1.067,0 2.114,0.28 3.038,0.813l0.557,-0.964Z" style="fill:#000;"/>
        </g>
        <g transform="matrix(-0.708666,0.708666,-0.714923,-0.714923,24.8943,12.1096)">
            <path d="M12.615,2.869c-1.093,-0.631 -2.333,-0.963 -3.595,-0.963l0,1.114c1.067,0 2.114,0.28 3.038,0.813l0.557,-0.964Z" style="fill:#000;"/>
        </g>
        <g transform="matrix(-1.00221,6.66134e-16,-6.66134e-16,-1.01105,21.0401,21.1952)">
            <path d="M12.615,2.869c-1.093,-0.631 -2.333,-0.963 -3.595,-0.963l0,1.114c1.067,0 2.114,0.28 3.038,0.813l0.557,-0.964Z" style="fill:#000;"/>
        </g>
        <g transform="matrix(-0.708666,-0.708666,0.714923,-0.714923,11.8904,24.8943)">
            <path d="M12.615,2.869c-1.093,-0.631 -2.333,-0.963 -3.595,-0.963l0,1.114c1.067,0 2.114,0.28 3.038,0.813l0.557,-0.964Z" style="fill:#000;"/>
        </g>
        <g transform="matrix(0,-1.00221,1.01105,1.11022e-16,2.80484,21.0401)">
            <path d="M12.615,2.869c-1.093,-0.631 -2.333,-0.963 -3.595,-0.963l0,1.114c1.067,0 2.114,0.28 3.038,0.813l0.557,-0.964Z" style="fill:#000;"/>
        </g>
        <g transform="matrix(0.708666,-0.708666,0.714923,0.714923,-0.894297,11.8904)">
            <path d="M12.615,2.869c-1.093,-0.631 -2.333,-0.963 -3.595,-0.963l0,1.114c1.067,0 2.114,0.28 3.038,0.813l0.557,-0.964Z" style="fill:#000;"/>
        </g>
        <g transform="matrix(1.07543,0,0,1.07543,0.0565747,1.31683)">
            <circle cx="11.106" cy="9.934" r="5.692" style="fill:#fff;stroke-width:0.57px;stroke:#fff;"/>
        </g>
        <g transform="matrix(1,0,0,0.623017,2.65814,7.97862)">
            <rect x="8.808" y="10.396" width="1.069" height="4.725" style="fill:#000;stroke-width:0.07px;stroke:#000;"/>
        </g>
        <g transform="matrix(0.512678,-0.367457,0.473934,0.661234,2.95901,10.2869)">
            <path d="M7.055,6.54c0.382,0 1.146,1.457 1.146,2.089c0,0.633 -0.513,1.146 -1.146,1.146c-0.632,0 -1.146,-0.513 -1.146,-1.146c0,-0.632 0.764,-2.089 1.146,-2.089Z" style="fill:#000;stroke-width:0.08px;stroke:#000;"/>
        </g>
        <g transform="matrix(0.512678,-0.367457,0.473934,0.661234,2.95901,8.01949)">
            <path d="M7.055,6.54c0.382,0 1.146,1.457 1.146,2.089c0,0.633 -0.513,1.146 -1.146,1.146c-0.632,0 -1.146,-0.513 -1.146,-1.146c0,-0.632 0.764,-2.089 1.146,-2.089Z" style="fill:#000;stroke-width:0.08px;stroke:#000;"/>
        </g>
        <g transform="matrix(0.512678,-0.367457,0.473934,0.661234,2.95901,5.75208)">
            <path d="M7.055,6.54c0.382,0 1.146,1.457 1.146,2.089c0,0.633 -0.513,1.146 -1.146,1.146c-0.632,0 -1.146,-0.513 -1.146,-1.146c0,-0.632 0.764,-2.089 1.146,-2.089Z" style="fill:#000;stroke-width:0.08px;stroke:#000;"/>
        </g>
        <g transform="matrix(-0.512678,-0.367457,-0.473934,0.661234,21.041,10.2869)">
            <path d="M7.055,6.54c0.382,0 1.146,1.457 1.146,2.089c0,0.633 -0.513,1.146 -1.146,1.146c-0.632,0 -1.146,-0.513 -1.146,-1.146c0,-0.632 0.764,-2.089 1.146,-2.089Z" style="fill:#000;stroke-width:0.08px;stroke:#000;"/>
        </g>
        <g transform="matrix(-0.512678,-0.367457,-0.473934,0.661234,21.041,8.01949)">
            <path d="M7.055,6.54c0.382,0 1.146,1.457 1.146,2.089c0,0.633 -0.513,1.146 -1.146,1.146c-0.632,0 -1.146,-0.513 -1.146,-1.146c0,-0.632 0.764,-2.089 1.146,-2.089Z" style="fill:#000;stroke-width:0.08px;stroke:#000;"/>
        </g>
        <g transform="matrix(-0.512678,-0.367457,-0.473934,0.661234,21.041,5.75208)">
            <path d="M7.055,6.54c0.382,0 1.146,1.457 1.146,2.089c0,0.633 -0.513,1.146 -1.146,1.146c-0.632,0 -1.146,-0.513 -1.146,-1.146c0,-0.632 0.764,-2.089 1.146,-2.089Z" style="fill:#000;stroke-width:0.08px;stroke:#000;"/>
        </g>
        <g transform="matrix(0.630764,0.000163911,-0.000211406,0.813537,7.5517,0.557741)">
            <path d="M7.055,6.54c0.382,0 1.146,1.457 1.146,2.089c0,0.633 -0.513,1.146 -1.146,1.146c-0.632,0 -1.146,-0.513 -1.146,-1.146c0,-0.632 0.764,-2.089 1.146,-2.089Z" style="fill:#000;stroke-width:0.08px;stroke:#000;"/>
        </g>
    </g>
</svg>
