<?xml version="1.0" encoding="UTF-8" standalone="no"?>
<!DOCTYPE svg PUBLIC "-//W3C//DTD SVG 1.1//EN" "http://www.w3.org/Graphics/SVG/1.1/DTD/svg11.dtd">
<svg width="30px" height="30px" version="1.1" xmlns="http://www.w3.org/2000/svg" xmlns:xlink="http://www.w3.org/1999/xlink" xml:space="preserve" style="fill-rule:evenodd;clip-rule:evenodd;stroke-linecap:round;stroke-linejoin:round;stroke-miterlimit:1.41421;">
    <g transform="matrix(2.03712,0,0,2.03712,-15.5569,-15.5569)">
        <g transform="matrix(1.00221,0,0,1.01105,5.95987,5.80484)">
            <path d="M12.615,2.869c-1.093,-0.631 -2.333,-0.963 -3.595,-0.963l0,1.114c1.067,0 2.114,0.28 3.038,0.813l0.557,-0.964Z" style="fill:#000;"/>
        </g>
        <g transform="matrix(1.00221,0,0,1.01105,5.95987,5.80484)">
            <path d="M12.615,2.869c-1.093,-0.631 -2.333,-0.963 -3.595,-0.963l0,1.114c1.067,0 2.114,0.28 3.038,0.813l0.557,-0.964Z" style="fill:#000;"/>
        </g>
        <g transform="matrix(0.708666,0.708666,-0.714923,0.714923,15.1096,2.1057)">
            <path d="M12.615,2.869c-1.093,-0.631 -2.333,-0.963 -3.595,-0.963l0,1.114c1.067,0 2.114,0.28 3.038,0.813l0.557,-0.964Z" style="fill:#000;"/>
        </g>
        <g transform="matrix(3.33067e-16,1.00221,-1.01105,3.33067e-16,24.1952,5.95987)">
            <path d="M12.615,2.869c-1.093,-0.631 -2.333,-0.963 -3.595,-0.963l0,1.114c1.067,0 2.114,0.28 3.038,0.813l0.557,-0.964Z" style="fill:#000;"/>
        </g>
        <g transform="matrix(-0.708666,0.708666,-0.714923,-0.714923,27.8943,15.1096)">
            <path d="M12.615,2.869c-1.093,-0.631 -2.333,-0.963 -3.595,-0.963l0,1.114c1.067,0 2.114,0.28 3.038,0.813l0.557,-0.964Z" style="fill:#000;"/>
        </g>
        <g transform="matrix(-1.00221,6.66134e-16,-6.66134e-16,-1.01105,24.0401,24.1952)">
            <path d="M12.615,2.869c-1.093,-0.631 -2.333,-0.963 -3.595,-0.963l0,1.114c1.067,0 2.114,0.28 3.038,0.813l0.557,-0.964Z" style="fill:#000;"/>
        </g>
        <g transform="matrix(-0.708666,-0.708666,0.714923,-0.714923,14.8904,27.8943)">
            <path d="M12.615,2.869c-1.093,-0.631 -2.333,-0.963 -3.595,-0.963l0,1.114c1.067,0 2.114,0.28 3.038,0.813l0.557,-0.964Z" style="fill:#000;"/>
        </g>
        <g transform="matrix(0,-1.00221,1.01105,1.11022e-16,5.80484,24.0401)">
            <path d="M12.615,2.869c-1.093,-0.631 -2.333,-0.963 -3.595,-0.963l0,1.114c1.067,0 2.114,0.28 3.038,0.813l0.557,-0.964Z" style="fill:#000;"/>
        </g>
        <g transform="matrix(0.708666,-0.708666,0.714923,0.714923,2.1057,14.8904)">
            <path d="M12.615,2.869c-1.093,-0.631 -2.333,-0.963 -3.595,-0.963l0,1.114c1.067,0 2.114,0.28 3.038,0.813l0.557,-0.964Z" style="fill:#000;"/>
        </g>
        <g transform="matrix(1.07543,0,0,1.07543,3.05657,4.31683)">
            <circle cx="11.106" cy="9.934" r="5.692" style="fill:#fff;stroke-width:0.46px;stroke:#fff;"/>
        </g>
        <g transform="matrix(1,0,0,1,6.104,6.23447)">
            <path d="M14.319,11.362l-10.846,0l4.071,-7.216l1.972,3.94l1.285,-1.89l3.518,5.166Z" style="fill:#000;"/>
        </g>
    </g>
</svg>
