<?xml version="1.0" encoding="UTF-8" standalone="no"?>
<!DOCTYPE svg PUBLIC "-//W3C//DTD SVG 1.1//EN" "http://www.w3.org/Graphics/SVG/1.1/DTD/svg11.dtd">
<svg width="13px" height="13px" version="1.1" xmlns="http://www.w3.org/2000/svg" xmlns:xlink="http://www.w3.org/1999/xlink" xml:space="preserve" style="fill-rule:evenodd;clip-rule:evenodd;stroke-linejoin:round;stroke-miterlimit:1.41421;">
    <g transform="matrix(0.887183,0.00341087,-0.00344098,0.895016,-1.47663,-1.67036)">
        <path d="M15.536,6.056c-1.086,-2.327 -3.331,-3.899 -5.889,-4.123l-0.061,0.689c2.313,0.203 4.342,1.623 5.322,3.727l0.628,-0.293Z" style="fill:#000;"/>
    </g>
    <g transform="matrix(0.271412,0.844654,-0.852111,0.273808,11.7961,-3.60893)">
        <path d="M15.536,6.056c-1.086,-2.327 -3.331,-3.899 -5.889,-4.123l-0.061,0.689c2.313,0.203 4.342,1.623 5.322,3.727l0.628,-0.293Z" style="fill:#000;"/>
    </g>
    <g transform="matrix(-0.70112,0.543632,-0.548431,-0.707311,17.8067,8.02928)">
        <path d="M15.536,6.056c-1.086,-2.327 -3.331,-3.899 -5.889,-4.123l-0.061,0.689c2.313,0.203 4.342,1.623 5.322,3.727l0.628,-0.293Z" style="fill:#000;"/>
    </g>
    <g transform="matrix(-0.728641,-0.50615,0.510619,-0.735074,8.4233,17.7511)">
        <path d="M15.536,6.056c-1.086,-2.327 -3.331,-3.899 -5.889,-4.123l-0.061,0.689c2.313,0.203 4.342,1.623 5.322,3.727l0.628,-0.293Z" style="fill:#000;"/>
    </g>
    <g transform="matrix(0.253199,-0.850291,0.857798,0.255435,-3.5906,11.847)">
        <path d="M15.536,6.056c-1.086,-2.327 -3.331,-3.899 -5.889,-4.123l-0.061,0.689c2.313,0.203 4.342,1.623 5.322,3.727l0.628,-0.293Z" style="fill:#000;"/>
    </g>
    <g transform="matrix(0.480653,0,0,0.480653,-0.751824,0.183778)">
        <path d="M15.087,7.306l5.202,10.403l-10.403,0l5.201,-10.403Z" style="fill:#fff;"/>
        <path d="M20.289,17.709l-10.403,0l5.201,-10.403l5.202,10.403ZM11.053,16.988l8.069,0l-4.035,-8.07l-4.034,8.07Z" style="fill:#000;"/>
    </g>
</svg>
