<?xml version="1.0" encoding="UTF-8" standalone="no"?>
<!DOCTYPE svg PUBLIC "-//W3C//DTD SVG 1.1//EN" "http://www.w3.org/Graphics/SVG/1.1/DTD/svg11.dtd">
<svg width="25px" height="25px" version="1.1" xmlns="http://www.w3.org/2000/svg" xmlns:xlink="http://www.w3.org/1999/xlink" xml:space="preserve" style="fill-rule:evenodd;clip-rule:evenodd;stroke-linejoin:round;stroke-miterlimit:1.41421;">
    <g transform="matrix(1.70612,0.00655936,-0.00661727,1.72118,-2.83966,-3.21224)">
        <path d="M15.536,6.056c-1.086,-2.327 -3.331,-3.899 -5.889,-4.123l-0.061,0.689c2.313,0.203 4.342,1.623 5.322,3.727l0.628,-0.293Z" style="fill:#000;"/>
    </g>
    <g transform="matrix(0.521947,1.62434,-1.63868,0.526555,22.6848,-6.94024)">
        <path d="M15.536,6.056c-1.086,-2.327 -3.331,-3.899 -5.889,-4.123l-0.061,0.689c2.313,0.203 4.342,1.623 5.322,3.727l0.628,-0.293Z" style="fill:#000;"/>
    </g>
    <g transform="matrix(-1.34831,1.04545,-1.05468,-1.36021,34.2437,15.4409)">
        <path d="M15.536,6.056c-1.086,-2.327 -3.331,-3.899 -5.889,-4.123l-0.061,0.689c2.313,0.203 4.342,1.623 5.322,3.727l0.628,-0.293Z" style="fill:#000;"/>
    </g>
    <g transform="matrix(-1.40123,-0.973366,0.98196,-1.4136,16.1987,34.1367)">
        <path d="M15.536,6.056c-1.086,-2.327 -3.331,-3.899 -5.889,-4.123l-0.061,0.689c2.313,0.203 4.342,1.623 5.322,3.727l0.628,-0.293Z" style="fill:#000;"/>
    </g>
    <g transform="matrix(0.486921,-1.63518,1.64961,0.49122,-6.90499,22.7827)">
        <path d="M15.536,6.056c-1.086,-2.327 -3.331,-3.899 -5.889,-4.123l-0.061,0.689c2.313,0.203 4.342,1.623 5.322,3.727l0.628,-0.293Z" style="fill:#000;"/>
    </g>
    <g transform="matrix(0.924332,0,0,0.924332,-1.44581,0.353419)">
        <path d="M15.087,7.306l5.202,10.403l-10.403,0l5.201,-10.403Z" style="fill:#fff;"/>
        <path d="M20.289,17.709l-10.403,0l5.201,-10.403l5.202,10.403ZM11.053,16.988l8.069,0l-4.035,-8.07l-4.034,8.07Z" style="fill:#000;"/>
    </g>
</svg>
