<?xml version="1.0" encoding="UTF-8" standalone="no"?>
<!DOCTYPE svg PUBLIC "-//W3C//DTD SVG 1.1//EN" "http://www.w3.org/Graphics/SVG/1.1/DTD/svg11.dtd">
<svg width="30px" height="30px" version="1.1" xmlns="http://www.w3.org/2000/svg" xmlns:xlink="http://www.w3.org/1999/xlink" xml:space="preserve">
    <g transform="matrix(1.66667,0,0,1.66667,-3.33333,-3.33333)" style="fill-rule:evenodd;clip-rule:evenodd;stroke-linejoin:round;stroke-miterlimit:1.41421;">
        <g transform="matrix(0.674143,0,0,0.674143,2.26209,3.48546)">
            <path d="M12.962,0.365c5.898,0 10.687,4.831 10.687,10.782c0,5.95 -4.789,10.781 -10.687,10.781c-5.899,0 -10.688,-4.831 -10.688,-10.781c0,-5.951 4.789,-10.782 10.688,-10.782ZM12.962,3.109c4.397,0 7.967,3.601 7.967,8.038c0,4.436 -3.57,8.038 -7.967,8.038c-4.398,0 -7.968,-3.602 -7.968,-8.038c0,-4.437 3.57,-8.038 7.968,-8.038Z" style="fill:#000;"/>
        </g>
        <g transform="matrix(0.964698,0,0,0.964698,-0.0814428,1.38546)">
            <path d="M11.487,5.353c2.546,0 4.614,2.067 4.614,4.613c0,2.547 -2.068,4.614 -4.614,4.614c-2.546,0 -4.614,-2.067 -4.614,-4.614c0,-2.546 2.068,-4.613 4.614,-4.613ZM11.487,6.036c2.169,0 3.93,1.761 3.93,3.93c0,2.17 -1.761,3.931 -3.93,3.931c-2.169,0 -3.93,-1.761 -3.93,-3.931c0,-2.169 1.761,-3.93 3.93,-3.93Z" style="fill:#000;"/>
        </g>
        <g transform="matrix(1,0,0,1.0544,2,2)">
            <path d="M9.978,0l0,1.939l-1.956,0l0,-1.939l1.956,0ZM9.775,0.201l-1.55,0l0,1.537l1.55,0l0,-1.537Z" style="fill:#000;"/>
        </g>
        <g transform="matrix(1,0,0,1.0544,2,2)">
            <path d="M9.978,0l0,1.939l-1.956,0l0,-1.939l1.956,0ZM9.775,0.201l-1.55,0l0,1.537l1.55,0l0,-1.537Z" style="fill:#000;"/>
        </g>
        <g transform="matrix(-1,3.21625e-16,-3.39119e-16,-1.0544,20,20)">
            <path d="M9.978,0l0,1.939l-1.956,0l0,-1.939l1.956,0ZM9.775,0.201l-1.55,0l0,1.537l1.55,0l0,-1.537Z" style="fill:#000;"/>
        </g>
        <g transform="matrix(-1.60812e-16,-1,1.0544,-1.6956e-16,2,20)">
            <path d="M9.978,0l0,1.939l-1.956,0l0,-1.939l1.956,0ZM9.775,0.201l-1.55,0l0,1.537l1.55,0l0,-1.537Z" style="fill:#000;"/>
        </g>
        <g transform="matrix(2.83277e-16,1,-1.0544,2.98686e-16,20,2)">
            <path d="M9.978,0l0,1.939l-1.956,0l0,-1.939l1.956,0ZM9.775,0.201l-1.55,0l0,1.537l1.55,0l0,-1.537Z" style="fill:#000;"/>
        </g>
    </g>
</svg>
