<?xml version="1.0" encoding="UTF-8" standalone="no"?>
<!DOCTYPE svg PUBLIC "-//W3C//DTD SVG 1.1//EN" "http://www.w3.org/Graphics/SVG/1.1/DTD/svg11.dtd">
<svg width="24px" height="12px" version="1.1" xmlns="http://www.w3.org/2000/svg" xmlns:xlink="http://www.w3.org/1999/xlink" xml:space="preserve" style="fill-rule:evenodd;clip-rule:evenodd;stroke-miterlimit:1.41421;">
    <g transform="matrix(1,0,0,1,-0.391863,-6.18399)" style="fill-rule:evenodd;clip-rule:evenodd;stroke-miterlimit:1.41421;">
        <g transform="matrix(0.0199135,0,0,0.0199135,0.153616,5.95152)">
            <path id="Triangle-1" d="M806.513,298.594l-794.549,0l1165.85,-286.92l-371.305,286.92Z" style="fill:#000;"/>
        </g>
        <g transform="matrix(0.0199135,0,0,0.0199135,0.153616,5.95152)">
            <path id="Triangle-1-copy" d="M796.755,313.005l-766.981,0l831.015,140.995" style="fill:#000;"/>
        </g>
        <g transform="matrix(0.0199135,0,0,0.0199135,0.153616,5.95152)">
            <path id="Rectangle-1-copy" d="M290.16,573.739c0.338,-11.632 8.813,-20.945 19.209,-20.945l75.267,0c1.723,-1.446 3.691,-2.588 5.862,-3.337l19.416,-6.691c0.947,-3.56 2.372,-6.925 4.202,-10.021c-1.451,-3.21 -2.54,-6.556 -3.203,-9.981l-2.411,-12.462c-1.528,0.039 -3.072,0.019 -4.627,-0.062c-29.878,-1.566 -52.92,-25.312 -51.467,-53.038c1.453,-27.727 26.851,-48.934 56.729,-47.368c7.255,0.38 14.107,2.068 20.304,4.804l42.848,-100.944l24.152,-0.373l-46.434,117.075c7.21,9.065 11.23,20.392 10.596,32.476c-0.178,3.403 -0.717,6.707 -1.58,9.883l295.696,27.883l0.04,0.004c4.342,-1.337 9.068,-2.071 14.012,-2.071c20.812,0 37.764,13.007 38.445,29.253l34.982,38.835c14.779,16.406 8.86,29.457 -13.232,29.136l-3.357,-0.049c-17.843,-0.26 -40.789,-9.146 -56.762,-21.19c-5.926,2.852 -12.607,4.31 -19.58,3.963l-125.736,-6.266c-5.099,4.621 -12.151,7.538 -20.616,7.975l-154.399,7.963c-7.248,0.374 -14.046,-1.209 -19.906,-4.288l-26.311,9.068c-0.238,0.082 -0.477,0.159 -0.716,0.23c-2.169,0.958 -4.531,1.483 -7,1.483l-85.214,0c-10.401,0 -18.871,-9.315 -19.209,-20.945c-0.007,0.239 -0.01,0.48 -0.01,0.721l0,-1.442c0,0.241 0.003,0.482 0.01,0.721Z" style="fill:#000;stroke-width:10px;stroke:#feffff;"/>
        </g>
    </g>
</svg>
