<?xml version="1.0" encoding="UTF-8" standalone="no"?>
<!DOCTYPE svg PUBLIC "-//W3C//DTD SVG 1.1//EN" "http://www.w3.org/Graphics/SVG/1.1/DTD/svg11.dtd">
<svg width="47px" height="47px" version="1.1" xmlns="http://www.w3.org/2000/svg" xmlns:xlink="http://www.w3.org/1999/xlink" xml:space="preserve" style="fill-rule:evenodd;clip-rule:evenodd;stroke-linejoin:round;stroke-miterlimit:1.41421;">
    <g transform="matrix(1,0,0,1,-26.6778,-11.6357)">
        <g id="full_ring" transform="matrix(-0.384304,1.48247,-1.48247,-0.384304,56.7531,28.0852)">
            <path d="M-9.318,6.855l-0.023,-0.091l-0.022,-0.092l-0.022,-0.092l-0.021,-0.092l-0.02,-0.092l-0.02,-0.093l-0.019,-0.093l-0.019,-0.093l-0.018,-0.093l-0.018,-0.093l-0.017,-0.094l-0.016,-0.093l-0.016,-0.094l-0.016,-0.095l-0.014,-0.094l-0.014,-0.095l-0.014,-0.094l-0.013,-0.095l-0.012,-0.095l-0.012,-0.096l-0.012,-0.095l-0.01,-0.096l-0.01,-0.096l-0.01,-0.096l-0.009,-0.096l-0.008,-0.096l-0.007,-0.097l-0.007,-0.096l-0.007,-0.097l-0.006,-0.097l-0.005,-0.097l-0.005,-0.098l-0.004,-0.097l-0.003,-0.098l-0.003,-0.098l-0.002,-0.097l-0.002,-0.099l-0.001,-0.098l0,-0.098l0,-0.099l0.001,-0.098l0.002,-0.098l0.002,-0.098l0.003,-0.098l0.003,-0.097l0.004,-0.098l0.005,-0.097l0.005,-0.097l0.006,-0.097l0.007,-0.097l0.007,-0.097l0.007,-0.096l0.008,-0.097l0.009,-0.096l0.01,-0.096l0.01,-0.096l0.01,-0.095l0.012,-0.096l0.012,-0.095l0.012,-0.095l0.013,-0.095l0.014,-0.095l0.014,-0.094l0.014,-0.095l0.016,-0.094l0.016,-0.094l0.016,-0.094l0.017,-0.093l0.018,-0.094l0.018,-0.093l0.019,-0.093l0.019,-0.093l0.02,-0.092l0.02,-0.093l0.021,-0.092l0.022,-0.092l0.022,-0.091l0.023,-0.092l0.023,-0.091l0.024,-0.091l0.024,-0.091l0.025,-0.091l0.025,-0.09l0.026,-0.09l0.027,-0.09l0.027,-0.09l0.027,-0.089l0.028,-0.09l0.029,-0.089l0.029,-0.088l0.03,-0.089l0.03,-0.088l0.031,-0.088l0.031,-0.088l0.032,-0.088l0.032,-0.087l0.033,-0.087l0.033,-0.087l0.034,-0.086l0.034,-0.087l0.035,-0.086l0.035,-0.085l0.036,-0.086l0.037,-0.085l0.037,-0.085l0.037,-0.085l0.038,-0.084l0.038,-0.084l0.039,-0.084l0.04,-0.084l0.039,-0.083l0.041,-0.083l0.041,-0.083l0.041,-0.083l0.042,-0.082l0.042,-0.082l0.043,-0.081l0.043,-0.082l0.044,-0.081l0.044,-0.08l0.045,-0.081l0.045,-0.08l0.045,-0.08l0.047,-0.079l0.046,-0.08l0.047,-0.079l0.048,-0.078l0.048,-0.079l0.048,-0.078l0.049,-0.077l0.049,-0.078l0.05,-0.077l0.05,-0.076l0.051,-0.077l0.051,-0.076l0.051,-0.076l0.052,-0.075l0.053,-0.075l0.053,-0.075l0.053,-0.075l0.054,-0.074l0.054,-0.073l0.054,-0.074l0.055,-0.073l0.056,-0.073l0.056,-0.072l0.056,-0.072l0.057,-0.072l0.057,-0.071l0.058,-0.071l0.058,-0.071l0.058,-0.07l0.059,-0.07l0.059,-0.07l0.06,-0.069l0.06,-0.069l0.06,-0.069l0.061,-0.068l0.061,-0.068l0.062,-0.067l0.062,-0.067l0.062,-0.067l0.063,-0.066l0.063,-0.066l0.064,-0.066l0.064,-0.065l0.064,-0.065l0.065,-0.064l0.065,-0.064l0.066,-0.064l0.066,-0.063l0.066,-0.063l0.067,-0.062l0.067,-0.062l0.067,-0.062l0.068,-0.061l0.068,-0.061l0.069,-0.06l0.069,-0.06l0.069,-0.06l0.07,-0.059l0.07,-0.059l0.07,-0.058l0.071,-0.058l0.071,-0.058l0.071,-0.057l0.072,-0.057l0.072,-0.056l0.072,-0.056l0.073,-0.056l0.073,-0.055l0.073,-0.054l0.074,-0.054l0.074,-0.054l0.075,-0.053l0.075,-0.053l0.075,-0.053l0.075,-0.052l0.076,-0.051l0.076,-0.051l0.077,-0.051l0.076,-0.05l0.077,-0.05l0.078,-0.049l0.077,-0.049l0.078,-0.048l0.079,-0.048l0.078,-0.048l0.079,-0.047l0.08,-0.046l0.079,-0.047l0.08,-0.045l0.08,-0.045l0.081,-0.045l0.08,-0.044l0.081,-0.044l0.082,-0.043l0.081,-0.043l0.082,-0.042l0.082,-0.042l0.083,-0.041l0.083,-0.041l0.083,-0.041l0.083,-0.039l0.084,-0.04l0.084,-0.039l0.084,-0.038l0.084,-0.038l0.085,-0.037l0.085,-0.037l0.085,-0.037l0.086,-0.036l0.085,-0.035l0.086,-0.035l0.087,-0.034l0.086,-0.034l0.087,-0.033l0.087,-0.033l0.087,-0.032l0.088,-0.032l0.088,-0.031l0.088,-0.031l0.088,-0.03l0.088,-0.03l0.089,-0.029l0.089,-0.029l0.09,-0.028l0.089,-0.027l0.09,-0.027l0.09,-0.027l0.09,-0.026l0.09,-0.025l0.091,-0.025l0.091,-0.024l0.091,-0.024l0.091,-0.023l0.092,-0.023l0.091,-0.022l0.092,-0.022l0.092,-0.021l0.093,-0.02l0.092,-0.02l0.093,-0.019l0.093,-0.019l0.093,-0.018l0.094,-0.018l0.093,-0.017l0.094,-0.016l0.094,-0.016l0.094,-0.016l0.095,-0.014l0.094,-0.014l0.095,-0.014l0.095,-0.013l0.095,-0.012l0.095,-0.012l0.096,-0.011l0.095,-0.011l0.096,-0.01l0.096,-0.01l0.096,-0.008l0.097,-0.009l0.096,-0.007l0.097,-0.007l0.097,-0.007l0.097,-0.006l0.097,-0.005l0.097,-0.005l0.098,-0.004l0.097,-0.003l0.098,-0.003l0.098,-0.002l0.098,-0.002l0.098,-0.001l0.099,0l0.098,0l0.098,0.001l0.099,0.002l0.097,0.002l0.098,0.003l0.098,0.003l0.097,0.004l0.098,0.005l0.097,0.005l0.097,0.006l0.097,0.007l0.096,0.007l0.097,0.007l0.096,0.009l0.096,0.008l0.096,0.01l0.096,0.01l0.096,0.011l0.095,0.011l0.096,0.012l0.095,0.012l0.095,0.013l0.094,0.014l0.095,0.014l0.094,0.014l0.095,0.016l0.094,0.016l0.093,0.016l0.094,0.017l0.093,0.018l0.093,0.018l0.093,0.019l0.093,0.019l0.093,0.02l0.092,0.02l0.092,0.021l0.092,0.022l0.092,0.022l0.091,0.023l0.092,0.023l0.091,0.024l0.091,0.024l0.09,0.025l0.091,0.025l0.09,0.026l0.09,0.027l0.09,0.027l0.089,0.027l0.089,0.028l0.089,0.029l0.089,0.029l0.089,0.03l0.088,0.03l0.088,0.031l0.088,0.031l0.087,0.032l0.088,0.032l0.087,0.033l0.086,0.033l0.087,0.034l0.086,0.034l0.086,0.035l0.086,0.035l0.086,0.036l0.085,0.037l0.085,0.037l0.084,0.037l0.085,0.038l0.084,0.038l0.084,0.039l0.083,0.04l0.084,0.039l0.083,0.041l0.083,0.041l0.082,0.041l0.082,0.042l0.082,0.042l0.082,0.043l0.081,0.043l0.081,0.044l0.081,0.044l0.08,0.045l0.081,0.045l0.079,0.045l0.08,0.047l0.079,0.046l0.079,0.047l0.079,0.048l0.078,0.048l0.078,0.048l0.078,0.049l0.077,0.049l0.077,0.05l0.077,0.05l0.076,0.051l0.077,0.051l0.075,0.051l0.076,0.052l0.075,0.053l0.075,0.053l0.074,0.053l0.074,0.054l0.074,0.054l0.073,0.054l0.074,0.055l0.072,0.056l0.073,0.056l0.072,0.056l0.072,0.057l0.071,0.057l0.071,0.058l0.071,0.058l0.07,0.058l0.07,0.059l0.07,0.059l0.069,0.06l0.069,0.06l0.068,0.06l0.068,0.061l0.068,0.061l0.068,0.062l0.067,0.062l0.066,0.062l0.067,0.063l0.066,0.063l0.065,0.064l0.065,0.064l0.065,0.064l0.064,0.065l0.065,0.065l0.063,0.066l0.063,0.066l0.063,0.066l0.063,0.067l0.062,0.067l0.061,0.067l0.062,0.068l0.06,0.068l0.061,0.069l0.06,0.069l0.06,0.069l0.059,0.07l0.059,0.07l0.058,0.07l0.058,0.071l0.058,0.071l0.057,0.071l0.056,0.072l0.057,0.072l0.056,0.072l0.055,0.073l0.055,0.073l0.055,0.074l0.054,0.073l0.054,0.074l0.053,0.075l0.053,0.075l0.052,0.075l0.052,0.075l0.052,0.076l0.051,0.076l0.051,0.077l0.05,0.076l0.049,0.077l0.05,0.078l0.049,0.077l0.048,0.078l0.048,0.079l0.047,0.078l0.047,0.079l0.047,0.08l0.046,0.079l0.046,0.08l0.045,0.08l0.045,0.081l0.044,0.08l0.043,0.081l0.044,0.082l0.042,0.081l0.043,0.082l0.042,0.082l0.041,0.083l0.041,0.083l0.04,0.083l0.04,0.083l0.039,0.084l0.039,0.084l0.039,0.084l0.038,0.084l0.037,0.085l0.037,0.085l0.036,0.085l0.036,0.086l0.035,0.085l0.035,0.086l0.035,0.087l0.033,0.086l0.034,0.087l0.033,0.087l0.032,0.087l0.032,0.088l0.031,0.088l0.031,0.088l0.03,0.088l0.03,0.089l0.029,0.088l0.028,0.089l0.028,0.09l0.028,0.089l0.027,0.09l0.026,0.09l0.026,0.09l0.026,0.09l0.025,0.091l0.024,0.091l0.024,0.091l0.023,0.091l0.023,0.092l0.022,0.091l0.021,0.092l0.021,0.092l0.021,0.093l0.02,0.092l0.019,0.093l0.019,0.093l0.018,0.093l0.017,0.094l0.017,0.093l0.017,0.094l0.016,0.094l0.015,0.094l0.015,0.095l0.014,0.094l0.014,0.095l0.013,0.095l0.012,0.095l0.012,0.095l0.011,0.096l0.011,0.095l0.01,0.096l0.009,0.096l0.009,0.096l0.008,0.097l0.008,0.096l0.007,0.097l0.006,0.097l0.006,0.097l0.006,0.097l0.004,0.097l0.004,0.098l0.004,0.097l0.002,0.098l0.003,0.098l0.001,0.098l0.001,0.098l0,0.099l0,0.098l-0.001,0.098l-0.001,0.099l-0.003,0.097l-0.002,0.098l-0.004,0.098l-0.004,0.097l-0.004,0.098l-0.006,0.097l-0.006,0.097l-0.006,0.097l-0.007,0.096l-0.008,0.097l-0.008,0.096l-0.009,0.096l-0.009,0.096l-0.01,0.096l-0.011,0.096l-0.011,0.095l-0.012,0.096l-0.012,0.095l-0.013,0.095l-0.014,0.094l-0.014,0.095l-0.015,0.094l-0.015,0.095l-0.016,0.094l-0.017,0.093l-0.017,0.094l-0.017,0.093l-0.018,0.093l-0.019,0.093l-0.019,0.093l-0.02,0.093l-0.021,0.092l-0.021,0.092l-0.021,0.092l-0.022,0.092l-0.023,0.091l-0.023,0.092l-0.024,0.091l-0.024,0.091l-0.025,0.09l-0.026,0.091l-0.026,0.09l-0.026,0.09l-0.027,0.09l-0.028,0.089l-0.028,0.089l-0.028,0.089l-0.029,0.089l-0.03,0.089l-0.03,0.088l-0.031,0.088l-0.031,0.088l-0.032,0.087l-0.032,0.088l-0.033,0.087l-0.034,0.086l-0.033,0.087l-0.035,0.086l-0.035,0.086l-0.035,0.086l-0.036,0.086l-0.036,0.085l-0.037,0.085l-0.037,0.084l-0.038,0.085l-0.039,0.084l-0.039,0.084l-0.039,0.084l-0.04,0.083l-0.04,0.083l-0.041,0.083l-0.041,0.082l-0.042,0.082l-0.043,0.082l-0.042,0.082l-0.044,0.081l-0.043,0.081l-0.044,0.081l-0.045,0.08l-0.045,0.081l-0.046,0.079l-0.046,0.08l-0.047,0.079l-0.047,0.079l-0.047,0.079l-0.048,0.078l-0.048,0.078l-0.049,0.078l-0.05,0.077l-0.049,0.077l-0.05,0.077l-0.051,0.076l-0.051,0.077l-0.052,0.075l-0.052,0.076l-0.052,0.075l-0.053,0.075l-0.053,0.074l-0.054,0.074l-0.054,0.074l-0.055,0.074l-0.055,0.073l-0.055,0.072l-0.056,0.073l-0.057,0.072l-0.056,0.072l-0.057,0.071l-0.058,0.071l-0.058,0.071l-0.058,0.07l-0.059,0.07l-0.059,0.07l-0.06,0.069l-0.06,0.069l-0.061,0.068l-0.06,0.068l-0.062,0.068l-0.061,0.068l-0.062,0.067l-0.063,0.066l-0.063,0.067l-0.063,0.066l-0.063,0.065l-0.065,0.065l-0.064,0.065l-0.065,0.065l-0.065,0.064l-0.065,0.063l-0.066,0.063l-0.067,0.063l-0.066,0.063l-0.067,0.062l-0.068,0.061l-0.068,0.062l-0.068,0.06l-0.068,0.061l-0.069,0.06l-0.069,0.06l-0.07,0.059l-0.07,0.059l-0.07,0.058l-0.071,0.058l-0.071,0.058l-0.071,0.057l-0.072,0.056l-0.072,0.057l-0.073,0.056l-0.072,0.055l-0.074,0.055l-0.073,0.055l-0.074,0.054l-0.074,0.054l-0.074,0.053l-0.075,0.053l-0.075,0.052l-0.076,0.052l-0.075,0.052l-0.077,0.051l-0.076,0.051l-0.077,0.05l-0.077,0.05l-0.077,0.049l-0.078,0.049l-0.078,0.048l-0.078,0.048l-0.079,0.047l-0.079,0.047l-0.079,0.047l-0.08,0.046l-0.079,0.046l-0.081,0.045l-0.08,0.045l-0.081,0.044l-0.081,0.043l-0.081,0.044l-0.082,0.043l-0.082,0.042l-0.082,0.042l-0.082,0.041l-0.083,0.041l-0.083,0.04l-0.084,0.04l-0.083,0.039l-0.084,0.039l-0.084,0.039l-0.085,0.038l-0.084,0.037l-0.085,0.037l-0.085,0.036l-0.086,0.036l-0.086,0.035l-0.086,0.035l-0.086,0.035l-0.087,0.034l-0.086,0.033l-0.087,0.033l-0.088,0.032l-0.087,0.032l-0.088,0.031l-0.088,0.031l-0.088,0.03l-0.089,0.03l-0.089,0.029l-0.089,0.028l-0.089,0.028l-0.089,0.028l-0.09,0.027l-0.09,0.027l-0.09,0.025l-0.091,0.026l-0.09,0.025l-0.091,0.024l-0.091,0.024l-0.092,0.023l-0.091,0.023l-0.092,0.022l-0.092,0.021l-0.092,0.021l-0.092,0.021l-0.093,0.02l-0.093,0.019l-0.093,0.019l-0.093,0.018l-0.093,0.017l-0.094,0.017l-0.093,0.017l-0.094,0.016l-0.095,0.015l-0.094,0.015l-0.095,0.014l-0.094,0.014l-0.095,0.013l-0.095,0.012l-0.096,0.012l-0.095,0.011l-0.096,0.011l-0.096,0.01l-0.096,0.009l-0.096,0.009l-0.096,0.008l-0.097,0.008l-0.096,0.007l-0.097,0.006l-0.097,0.006l-0.097,0.006l-0.098,0.004l-0.097,0.004l-0.098,0.004l-0.098,0.002l-0.097,0.003l-0.099,0.001l-0.098,0.001l-0.098,0l-0.099,0l-0.098,-0.001l-0.098,-0.001l-0.098,-0.003l-0.098,-0.002l-0.097,-0.004l-0.098,-0.004l-0.097,-0.004l-0.097,-0.006l-0.097,-0.006l-0.097,-0.006l-0.097,-0.007l-0.096,-0.008l-0.097,-0.008l-0.096,-0.009l-0.096,-0.009l-0.096,-0.01l-0.095,-0.011l-0.096,-0.011l-0.095,-0.012l-0.095,-0.012l-0.095,-0.013l-0.095,-0.014l-0.094,-0.014l-0.095,-0.015l-0.094,-0.015l-0.094,-0.016l-0.094,-0.017l-0.093,-0.017l-0.094,-0.017l-0.093,-0.018l-0.093,-0.019l-0.093,-0.019l-0.092,-0.02l-0.093,-0.021l-0.092,-0.021l-0.092,-0.021l-0.091,-0.022l-0.092,-0.023l-0.091,-0.023l-0.091,-0.024l-0.091,-0.024l-0.091,-0.025l-0.09,-0.026l-0.09,-0.025l-0.09,-0.027l-0.09,-0.027l-0.089,-0.028l-0.09,-0.028l-0.089,-0.028l-0.089,-0.029l-0.088,-0.03l-0.088,-0.03l-0.088,-0.031l-0.088,-0.031l-0.088,-0.032l-0.087,-0.032l-0.087,-0.033l-0.087,-0.033l-0.086,-0.034l-0.087,-0.035l-0.086,-0.035l-0.085,-0.035l-0.086,-0.036l-0.085,-0.036l-0.085,-0.037l-0.085,-0.037l-0.084,-0.038l-0.084,-0.039l-0.084,-0.039l-0.084,-0.039l-0.083,-0.04l-0.083,-0.04l-0.083,-0.041l-0.083,-0.041l-0.082,-0.042l-0.082,-0.042l-0.081,-0.043l-0.082,-0.044l-0.081,-0.043l-0.08,-0.044l-0.081,-0.045l-0.08,-0.045l-0.08,-0.046l-0.079,-0.046l-0.08,-0.047l-0.079,-0.047l-0.078,-0.047l-0.079,-0.048l-0.078,-0.048l-0.077,-0.049l-0.078,-0.049l-0.077,-0.05l-0.076,-0.05l-0.077,-0.051l-0.076,-0.051l-0.076,-0.052l-0.075,-0.052l-0.075,-0.052l-0.075,-0.053l-0.075,-0.053l-0.074,-0.054l-0.074,-0.054l-0.073,-0.055l-0.073,-0.055l-0.073,-0.055l-0.072,-0.056l-0.072,-0.057l-0.072,-0.056l-0.071,-0.057l-0.071,-0.058l-0.071,-0.058l-0.07,-0.058l-0.07,-0.059l-0.07,-0.059l-0.069,-0.06l-0.069,-0.06l-0.069,-0.061l-0.068,-0.06l-0.068,-0.062l-0.067,-0.061l-0.067,-0.062l-0.067,-0.063l-0.066,-0.063l-0.066,-0.063l-0.066,-0.063l-0.065,-0.064l-0.065,-0.065l-0.064,-0.065l-0.064,-0.065l-0.064,-0.065l-0.063,-0.066l-0.063,-0.067l-0.062,-0.066l-0.062,-0.067l-0.062,-0.068l-0.061,-0.068l-0.061,-0.068l-0.06,-0.068l-0.06,-0.069l-0.06,-0.069l-0.059,-0.07l-0.059,-0.07l-0.058,-0.07l-0.058,-0.071l-0.058,-0.071l-0.057,-0.071l-0.057,-0.072l-0.056,-0.072l-0.056,-0.073l-0.056,-0.072l-0.055,-0.073l-0.054,-0.074l-0.054,-0.074l-0.054,-0.074l-0.053,-0.074l-0.053,-0.075l-0.053,-0.075l-0.052,-0.076l-0.051,-0.075l-0.051,-0.077l-0.051,-0.076l-0.05,-0.077l-0.05,-0.077l-0.049,-0.077l-0.049,-0.078l-0.048,-0.078l-0.048,-0.078l-0.048,-0.079l-0.047,-0.079l-0.046,-0.079l-0.047,-0.08l-0.045,-0.079l-0.045,-0.081l-0.045,-0.08l-0.044,-0.081l-0.044,-0.081l-0.043,-0.081l-0.043,-0.082l-0.042,-0.082l-0.042,-0.082l-0.041,-0.082l-0.041,-0.083l-0.041,-0.083l-0.039,-0.083l-0.04,-0.084l-0.039,-0.084l-0.038,-0.084l-0.038,-0.085l-0.037,-0.084l-0.037,-0.085l-0.037,-0.085l-0.036,-0.086l-0.035,-0.086l-0.035,-0.086l-0.034,-0.086l-0.034,-0.087l-0.033,-0.086l-0.033,-0.087l-0.032,-0.088l-0.032,-0.087l-0.031,-0.088l-0.031,-0.088l-0.03,-0.088l-0.03,-0.089l-0.029,-0.089l-0.029,-0.089l-0.028,-0.089l-0.027,-0.089l-0.027,-0.09l-0.027,-0.09l-0.026,-0.09l-0.025,-0.091l-0.025,-0.09l-0.024,-0.091l-0.024,-0.091l-0.023,-0.092ZM-9.229,7.027l0.024,0.09l0.025,0.091l0.025,0.09l0.026,0.09l0.026,0.089l0.027,0.09l0.028,0.089l0.028,0.089l0.028,0.089l0.029,0.088l0.03,0.089l0.03,0.088l0.031,0.087l0.031,0.088l0.031,0.087l0.033,0.087l0.032,0.087l0.034,0.087l0.033,0.086l0.035,0.086l0.034,0.086l0.036,0.085l0.035,0.086l0.037,0.085l0.037,0.084l0.037,0.085l0.038,0.084l0.038,0.084l0.039,0.083l0.039,0.084l0.04,0.083l0.04,0.083l0.041,0.082l0.041,0.083l0.041,0.081l0.043,0.082l0.042,0.082l0.043,0.081l0.044,0.08l0.044,0.081l0.045,0.08l0.045,0.08l0.045,0.08l0.046,0.079l0.047,0.079l0.046,0.079l0.048,0.078l0.048,0.078l0.048,0.078l0.049,0.078l0.049,0.077l0.049,0.077l0.05,0.076l0.051,0.076l0.051,0.076l0.051,0.076l0.052,0.075l0.052,0.075l0.053,0.074l0.053,0.075l0.054,0.074l0.054,0.073l0.054,0.073l0.055,0.073l0.055,0.073l0.056,0.072l0.056,0.072l0.057,0.072l0.057,0.071l0.057,0.071l0.058,0.07l0.058,0.07l0.059,0.07l0.059,0.069l0.06,0.069l0.059,0.069l0.061,0.068l0.06,0.068l0.061,0.068l0.062,0.067l0.062,0.067l0.062,0.067l0.063,0.066l0.063,0.065l0.063,0.066l0.064,0.065l0.064,0.064l0.065,0.065l0.065,0.063l0.065,0.064l0.066,0.063l0.066,0.063l0.066,0.062l0.067,0.062l0.068,0.061l0.067,0.061l0.068,0.061l0.068,0.06l0.069,0.06l0.069,0.06l0.07,0.059l0.069,0.058l0.071,0.058l0.07,0.058l0.071,0.058l0.071,0.057l0.072,0.056l0.071,0.056l0.073,0.056l0.072,0.055l0.073,0.055l0.073,0.055l0.074,0.054l0.074,0.053l0.074,0.054l0.075,0.052l0.075,0.052l0.075,0.052l0.075,0.052l0.076,0.051l0.076,0.05l0.077,0.05l0.077,0.05l0.077,0.049l0.077,0.049l0.078,0.048l0.078,0.048l0.079,0.047l0.078,0.047l0.079,0.046l0.08,0.046l0.079,0.046l0.08,0.045l0.081,0.044l0.08,0.044l0.081,0.044l0.081,0.043l0.081,0.043l0.082,0.042l0.082,0.042l0.082,0.041l0.083,0.041l0.083,0.04l0.083,0.04l0.083,0.039l0.084,0.039l0.084,0.038l0.084,0.038l0.084,0.037l0.085,0.037l0.085,0.036l0.085,0.036l0.086,0.035l0.086,0.035l0.086,0.034l0.086,0.034l0.086,0.033l0.087,0.033l0.087,0.032l0.088,0.032l0.087,0.031l0.088,0.031l0.088,0.03l0.088,0.029l0.089,0.029l0.088,0.029l0.089,0.028l0.09,0.027l0.089,0.027l0.09,0.027l0.09,0.026l0.09,0.025l0.09,0.025l0.091,0.024l0.091,0.024l0.091,0.023l0.091,0.022l0.091,0.022l0.092,0.022l0.092,0.021l0.092,0.02l0.092,0.02l0.093,0.019l0.093,0.019l0.092,0.018l0.094,0.018l0.093,0.017l0.093,0.016l0.094,0.016l0.094,0.015l0.094,0.015l0.094,0.014l0.095,0.013l0.094,0.013l0.095,0.013l0.095,0.012l0.096,0.011l0.095,0.01l0.095,0.01l0.096,0.01l0.096,0.009l0.096,0.008l0.096,0.008l0.097,0.007l0.096,0.006l0.097,0.006l0.097,0.005l0.097,0.005l0.097,0.004l0.098,0.003l0.097,0.003l0.098,0.002l0.098,0.002l0.098,0.001l0.098,0l0.098,0l0.098,-0.001l0.098,-0.002l0.097,-0.002l0.098,-0.003l0.097,-0.003l0.097,-0.004l0.098,-0.005l0.096,-0.005l0.097,-0.006l0.097,-0.006l0.096,-0.007l0.096,-0.008l0.096,-0.008l0.096,-0.009l0.096,-0.01l0.096,-0.01l0.095,-0.01l0.095,-0.011l0.095,-0.012l0.095,-0.013l0.095,-0.013l0.094,-0.013l0.094,-0.014l0.095,-0.015l0.093,-0.015l0.094,-0.016l0.094,-0.016l0.093,-0.017l0.093,-0.018l0.093,-0.018l0.093,-0.019l0.092,-0.019l0.093,-0.02l0.092,-0.02l0.092,-0.021l0.091,-0.022l0.092,-0.022l0.091,-0.022l0.091,-0.023l0.091,-0.024l0.09,-0.024l0.091,-0.025l0.09,-0.025l0.09,-0.026l0.089,-0.027l0.09,-0.027l0.089,-0.027l0.089,-0.028l0.089,-0.029l0.088,-0.029l0.089,-0.029l0.088,-0.03l0.087,-0.031l0.088,-0.031l0.087,-0.032l0.087,-0.032l0.087,-0.033l0.087,-0.033l0.086,-0.034l0.086,-0.034l0.086,-0.035l0.085,-0.035l0.086,-0.036l0.085,-0.036l0.084,-0.037l0.085,-0.037l0.084,-0.038l0.084,-0.038l0.083,-0.039l0.084,-0.039l0.083,-0.04l0.083,-0.04l0.082,-0.041l0.083,-0.041l0.081,-0.042l0.082,-0.042l0.082,-0.043l0.081,-0.043l0.08,-0.044l0.081,-0.044l0.08,-0.044l0.08,-0.045l0.08,-0.046l0.079,-0.046l0.079,-0.046l0.079,-0.047l0.078,-0.047l0.078,-0.048l0.078,-0.048l0.078,-0.049l0.077,-0.049l0.077,-0.05l0.076,-0.05l0.076,-0.05l0.076,-0.051l0.076,-0.052l0.075,-0.052l0.075,-0.052l0.074,-0.052l0.075,-0.054l0.074,-0.053l0.073,-0.054l0.073,-0.055l0.073,-0.055l0.073,-0.055l0.072,-0.056l0.072,-0.056l0.072,-0.056l0.071,-0.057l0.071,-0.058l0.07,-0.058l0.07,-0.058l0.07,-0.058l0.069,-0.059l0.069,-0.06l0.069,-0.06l0.068,-0.06l0.068,-0.061l0.068,-0.061l0.067,-0.061l0.067,-0.062l0.067,-0.062l0.066,-0.063l0.065,-0.063l0.066,-0.064l0.065,-0.063l0.064,-0.065l0.065,-0.064l0.063,-0.065l0.064,-0.066l0.063,-0.065l0.063,-0.066l0.062,-0.067l0.062,-0.067l0.061,-0.067l0.061,-0.068l0.061,-0.068l0.06,-0.068l0.06,-0.069l0.06,-0.069l0.059,-0.069l0.058,-0.07l0.058,-0.07l0.058,-0.07l0.058,-0.071l0.057,-0.071l0.056,-0.072l0.056,-0.072l0.056,-0.072l0.055,-0.073l0.055,-0.073l0.055,-0.073l0.054,-0.073l0.053,-0.074l0.053,-0.075l0.053,-0.074l0.052,-0.075l0.052,-0.075l0.052,-0.076l0.051,-0.076l0.05,-0.076l0.05,-0.076l0.05,-0.077l0.049,-0.077l0.049,-0.078l0.048,-0.078l0.048,-0.078l0.047,-0.078l0.047,-0.079l0.046,-0.079l0.046,-0.079l0.046,-0.08l0.045,-0.08l0.044,-0.08l0.044,-0.081l0.044,-0.08l0.043,-0.081l0.043,-0.082l0.042,-0.082l0.042,-0.081l0.041,-0.083l0.041,-0.082l0.04,-0.083l0.04,-0.083l0.039,-0.084l0.039,-0.083l0.038,-0.084l0.038,-0.084l0.037,-0.085l0.037,-0.084l0.036,-0.085l0.036,-0.086l0.035,-0.085l0.035,-0.086l0.034,-0.086l0.034,-0.086l0.033,-0.087l0.033,-0.087l0.032,-0.087l0.032,-0.087l0.031,-0.088l0.031,-0.087l0.03,-0.088l0.029,-0.089l0.029,-0.088l0.029,-0.089l0.028,-0.089l0.027,-0.089l0.027,-0.09l0.027,-0.089l0.026,-0.09l0.025,-0.09l0.025,-0.091l0.024,-0.09l0.024,-0.091l0.023,-0.091l0.022,-0.091l0.022,-0.092l0.022,-0.091l0.021,-0.092l0.02,-0.092l0.02,-0.093l0.019,-0.092l0.019,-0.093l0.018,-0.093l0.018,-0.093l0.017,-0.093l0.016,-0.094l0.016,-0.094l0.015,-0.093l0.015,-0.095l0.014,-0.094l0.013,-0.094l0.013,-0.095l0.013,-0.095l0.012,-0.095l0.011,-0.095l0.01,-0.095l0.01,-0.096l0.01,-0.096l0.009,-0.096l0.008,-0.096l0.008,-0.096l0.007,-0.096l0.006,-0.097l0.006,-0.097l0.005,-0.096l0.005,-0.098l0.004,-0.097l0.003,-0.097l0.003,-0.098l0.002,-0.097l0.002,-0.098l0.001,-0.098l0,-0.098l0,-0.098l-0.001,-0.098l-0.002,-0.098l-0.002,-0.098l-0.003,-0.097l-0.003,-0.098l-0.004,-0.097l-0.005,-0.097l-0.005,-0.097l-0.006,-0.097l-0.006,-0.096l-0.007,-0.097l-0.008,-0.096l-0.008,-0.096l-0.009,-0.096l-0.01,-0.096l-0.01,-0.095l-0.01,-0.095l-0.011,-0.096l-0.012,-0.095l-0.013,-0.094l-0.013,-0.095l-0.013,-0.095l-0.014,-0.094l-0.015,-0.094l-0.015,-0.094l-0.016,-0.094l-0.016,-0.093l-0.017,-0.093l-0.018,-0.094l-0.018,-0.092l-0.019,-0.093l-0.019,-0.093l-0.02,-0.092l-0.02,-0.092l-0.021,-0.092l-0.022,-0.092l-0.022,-0.091l-0.022,-0.091l-0.023,-0.091l-0.024,-0.091l-0.024,-0.091l-0.025,-0.09l-0.025,-0.09l-0.026,-0.09l-0.027,-0.09l-0.027,-0.089l-0.027,-0.09l-0.028,-0.089l-0.029,-0.088l-0.029,-0.089l-0.029,-0.088l-0.03,-0.088l-0.031,-0.088l-0.031,-0.087l-0.032,-0.088l-0.032,-0.087l-0.033,-0.087l-0.033,-0.086l-0.034,-0.086l-0.034,-0.086l-0.035,-0.086l-0.035,-0.086l-0.036,-0.085l-0.036,-0.085l-0.037,-0.085l-0.037,-0.084l-0.038,-0.084l-0.038,-0.084l-0.039,-0.084l-0.039,-0.083l-0.04,-0.083l-0.04,-0.083l-0.041,-0.083l-0.041,-0.082l-0.042,-0.082l-0.042,-0.082l-0.043,-0.081l-0.043,-0.081l-0.044,-0.081l-0.044,-0.08l-0.044,-0.081l-0.045,-0.08l-0.046,-0.079l-0.046,-0.079l-0.046,-0.08l-0.047,-0.078l-0.047,-0.079l-0.048,-0.078l-0.048,-0.078l-0.049,-0.077l-0.049,-0.077l-0.05,-0.077l-0.05,-0.077l-0.05,-0.076l-0.051,-0.076l-0.052,-0.075l-0.052,-0.075l-0.052,-0.075l-0.053,-0.075l-0.053,-0.074l-0.053,-0.074l-0.054,-0.074l-0.055,-0.073l-0.055,-0.073l-0.055,-0.072l-0.056,-0.073l-0.056,-0.071l-0.056,-0.072l-0.057,-0.071l-0.058,-0.071l-0.058,-0.07l-0.058,-0.071l-0.058,-0.069l-0.06,-0.07l-0.059,-0.069l-0.06,-0.069l-0.06,-0.068l-0.061,-0.068l-0.061,-0.067l-0.061,-0.068l-0.062,-0.066l-0.062,-0.067l-0.063,-0.066l-0.063,-0.066l-0.064,-0.065l-0.063,-0.065l-0.065,-0.065l-0.064,-0.064l-0.065,-0.064l-0.066,-0.063l-0.065,-0.063l-0.066,-0.063l-0.067,-0.062l-0.067,-0.062l-0.067,-0.062l-0.068,-0.061l-0.068,-0.06l-0.068,-0.061l-0.069,-0.059l-0.069,-0.06l-0.069,-0.059l-0.07,-0.059l-0.07,-0.058l-0.07,-0.058l-0.071,-0.057l-0.071,-0.057l-0.072,-0.057l-0.072,-0.056l-0.072,-0.056l-0.073,-0.055l-0.073,-0.055l-0.073,-0.054l-0.073,-0.054l-0.074,-0.054l-0.075,-0.053l-0.074,-0.053l-0.075,-0.052l-0.075,-0.052l-0.076,-0.051l-0.076,-0.051l-0.076,-0.051l-0.076,-0.05l-0.077,-0.049l-0.077,-0.049l-0.078,-0.049l-0.078,-0.048l-0.078,-0.048l-0.078,-0.048l-0.079,-0.046l-0.079,-0.047l-0.079,-0.046l-0.08,-0.045l-0.08,-0.045l-0.08,-0.045l-0.081,-0.044l-0.08,-0.044l-0.081,-0.043l-0.082,-0.042l-0.082,-0.042l-0.081,-0.042l-0.083,-0.041l-0.082,-0.041l-0.083,-0.04l-0.083,-0.04l-0.084,-0.039l-0.083,-0.039l-0.084,-0.038l-0.084,-0.038l-0.085,-0.037l-0.084,-0.037l-0.085,-0.037l-0.086,-0.035l-0.085,-0.036l-0.086,-0.034l-0.086,-0.035l-0.086,-0.033l-0.087,-0.034l-0.087,-0.032l-0.087,-0.033l-0.087,-0.031l-0.088,-0.031l-0.087,-0.031l-0.088,-0.03l-0.089,-0.03l-0.088,-0.029l-0.089,-0.028l-0.089,-0.028l-0.089,-0.028l-0.09,-0.027l-0.089,-0.026l-0.09,-0.026l-0.09,-0.025l-0.091,-0.025l-0.09,-0.024l-0.091,-0.024l-0.091,-0.023l-0.091,-0.023l-0.092,-0.022l-0.091,-0.021l-0.092,-0.021l-0.092,-0.021l-0.093,-0.019l-0.092,-0.02l-0.093,-0.018l-0.093,-0.018l-0.093,-0.018l-0.093,-0.017l-0.094,-0.016l-0.094,-0.016l-0.093,-0.016l-0.095,-0.014l-0.094,-0.014l-0.094,-0.014l-0.095,-0.013l-0.095,-0.012l-0.095,-0.012l-0.095,-0.011l-0.095,-0.011l-0.096,-0.01l-0.096,-0.009l-0.096,-0.009l-0.096,-0.008l-0.096,-0.008l-0.096,-0.007l-0.097,-0.006l-0.097,-0.006l-0.096,-0.006l-0.098,-0.004l-0.097,-0.004l-0.097,-0.004l-0.098,-0.002l-0.097,-0.003l-0.098,-0.001l-0.098,-0.001l-0.098,0l-0.098,0l-0.098,0.001l-0.098,0.001l-0.098,0.003l-0.097,0.002l-0.098,0.004l-0.097,0.004l-0.097,0.004l-0.097,0.006l-0.097,0.006l-0.096,0.006l-0.097,0.007l-0.096,0.008l-0.096,0.008l-0.096,0.009l-0.096,0.009l-0.095,0.01l-0.095,0.011l-0.096,0.011l-0.095,0.012l-0.095,0.012l-0.094,0.013l-0.095,0.014l-0.094,0.014l-0.094,0.014l-0.094,0.016l-0.094,0.016l-0.093,0.016l-0.093,0.017l-0.094,0.018l-0.092,0.018l-0.093,0.018l-0.093,0.02l-0.092,0.019l-0.092,0.021l-0.092,0.021l-0.092,0.021l-0.091,0.022l-0.091,0.023l-0.091,0.023l-0.091,0.024l-0.091,0.024l-0.09,0.025l-0.09,0.025l-0.09,0.026l-0.09,0.026l-0.089,0.027l-0.09,0.028l-0.089,0.028l-0.088,0.028l-0.089,0.029l-0.088,0.03l-0.088,0.03l-0.088,0.031l-0.087,0.031l-0.088,0.031l-0.087,0.033l-0.087,0.032l-0.086,0.034l-0.086,0.033l-0.086,0.035l-0.086,0.034l-0.086,0.036l-0.085,0.035l-0.085,0.037l-0.085,0.037l-0.084,0.037l-0.084,0.038l-0.084,0.038l-0.084,0.039l-0.083,0.039l-0.083,0.04l-0.083,0.04l-0.083,0.041l-0.082,0.041l-0.082,0.042l-0.082,0.042l-0.081,0.042l-0.081,0.043l-0.081,0.044l-0.08,0.044l-0.081,0.045l-0.08,0.045l-0.079,0.045l-0.08,0.046l-0.079,0.047l-0.078,0.046l-0.079,0.048l-0.078,0.048l-0.078,0.048l-0.077,0.049l-0.077,0.049l-0.077,0.049l-0.077,0.05l-0.076,0.051l-0.076,0.051l-0.075,0.051l-0.075,0.052l-0.075,0.052l-0.075,0.053l-0.074,0.053l-0.074,0.054l-0.074,0.054l-0.073,0.054l-0.073,0.055l-0.072,0.055l-0.073,0.056l-0.071,0.056l-0.072,0.057l-0.071,0.057l-0.071,0.057l-0.07,0.058l-0.071,0.058l-0.069,0.059l-0.07,0.059l-0.069,0.06l-0.069,0.059l-0.068,0.061l-0.068,0.06l-0.067,0.061l-0.068,0.062l-0.067,0.062l-0.066,0.062l-0.066,0.063l-0.066,0.063l-0.065,0.063l-0.065,0.064l-0.065,0.064l-0.064,0.065l-0.064,0.065l-0.063,0.065l-0.063,0.066l-0.063,0.066l-0.062,0.067l-0.062,0.066l-0.062,0.068l-0.061,0.067l-0.06,0.068l-0.061,0.068l-0.059,0.069l-0.06,0.069l-0.059,0.07l-0.059,0.069l-0.058,0.071l-0.058,0.07l-0.057,0.071l-0.057,0.071l-0.057,0.072l-0.056,0.071l-0.056,0.073l-0.055,0.072l-0.055,0.073l-0.054,0.073l-0.054,0.074l-0.054,0.074l-0.053,0.074l-0.053,0.075l-0.052,0.075l-0.052,0.075l-0.051,0.075l-0.051,0.076l-0.051,0.076l-0.05,0.077l-0.049,0.077l-0.049,0.077l-0.049,0.077l-0.048,0.078l-0.048,0.078l-0.048,0.079l-0.046,0.078l-0.047,0.08l-0.046,0.079l-0.045,0.079l-0.045,0.08l-0.045,0.081l-0.044,0.08l-0.044,0.081l-0.043,0.081l-0.042,0.081l-0.043,0.082l-0.041,0.082l-0.041,0.082l-0.041,0.083l-0.04,0.083l-0.04,0.083l-0.039,0.083l-0.039,0.084l-0.038,0.084l-0.038,0.084l-0.037,0.084l-0.037,0.085l-0.037,0.085l-0.035,0.085l-0.036,0.086l-0.034,0.086l-0.035,0.086l-0.033,0.086l-0.034,0.086l-0.032,0.087l-0.033,0.087l-0.031,0.088l-0.031,0.087l-0.031,0.088l-0.03,0.088l-0.03,0.088l-0.029,0.089l-0.028,0.088l-0.028,0.089l-0.028,0.09l-0.027,0.089l-0.026,0.09l-0.026,0.09l-0.025,0.09l-0.025,0.09l-0.024,0.091l-0.024,0.091l-0.023,0.091l-0.023,0.091l-0.022,0.091l-0.021,0.092l-0.021,0.092l-0.021,0.092l-0.019,0.092l-0.02,0.093l-0.018,0.093l-0.018,0.092l-0.018,0.094l-0.017,0.093l-0.016,0.093l-0.016,0.094l-0.016,0.094l-0.014,0.094l-0.014,0.094l-0.014,0.095l-0.013,0.095l-0.012,0.094l-0.012,0.095l-0.011,0.096l-0.011,0.095l-0.01,0.095l-0.009,0.096l-0.009,0.096l-0.008,0.096l-0.008,0.096l-0.007,0.097l-0.006,0.096l-0.006,0.097l-0.006,0.097l-0.004,0.097l-0.004,0.097l-0.004,0.098l-0.002,0.097l-0.003,0.098l-0.001,0.098l-0.001,0.098l0,0.098l0,0.098l0.001,0.098l0.001,0.098l0.003,0.097l0.002,0.098l0.004,0.097l0.004,0.097l0.004,0.098l0.006,0.096l0.006,0.097l0.006,0.097l0.007,0.096l0.008,0.096l0.008,0.096l0.009,0.096l0.009,0.096l0.01,0.096l0.011,0.095l0.011,0.095l0.012,0.095l0.012,0.095l0.013,0.095l0.014,0.094l0.014,0.094l0.014,0.095l0.016,0.093l0.016,0.094l0.016,0.094l0.017,0.093l0.018,0.093l0.018,0.093l0.018,0.093l0.02,0.092l0.019,0.093l0.021,0.092l0.021,0.092l0.021,0.091l0.022,0.092l0.023,0.091l0.023,0.091l0.024,0.091ZM-6.993,6.271l-0.019,-0.077l-0.019,-0.077l-0.018,-0.078l-0.018,-0.077l-0.017,-0.078l-0.017,-0.078l-0.016,-0.078l-0.016,-0.079l-0.015,-0.078l-0.015,-0.079l-0.014,-0.079l-0.014,-0.079l-0.014,-0.079l-0.013,-0.079l-0.012,-0.08l-0.012,-0.079l-0.011,-0.08l-0.011,-0.08l-0.011,-0.08l-0.01,-0.081l-0.009,-0.08l-0.009,-0.081l-0.009,-0.08l-0.008,-0.081l-0.007,-0.081l-0.007,-0.082l-0.006,-0.081l-0.006,-0.081l-0.006,-0.082l-0.005,-0.082l-0.004,-0.082l-0.004,-0.082l-0.003,-0.082l-0.003,-0.082l-0.003,-0.082l-0.002,-0.083l-0.001,-0.083l-0.001,-0.082l0,-0.083l0,-0.083l0.001,-0.083l0.001,-0.083l0.002,-0.082l0.003,-0.082l0.003,-0.083l0.003,-0.082l0.004,-0.082l0.004,-0.082l0.005,-0.081l0.006,-0.082l0.006,-0.082l0.006,-0.081l0.007,-0.081l0.007,-0.081l0.008,-0.081l0.009,-0.081l0.009,-0.08l0.009,-0.081l0.01,-0.08l0.011,-0.08l0.011,-0.08l0.011,-0.08l0.012,-0.08l0.012,-0.079l0.013,-0.079l0.014,-0.08l0.014,-0.079l0.014,-0.079l0.015,-0.078l0.015,-0.079l0.016,-0.078l0.016,-0.078l0.017,-0.078l0.017,-0.078l0.018,-0.078l0.018,-0.077l0.019,-0.077l0.019,-0.078l0.019,-0.076l0.02,-0.077l0.021,-0.077l0.021,-0.076l0.021,-0.076l0.044,-0.152l0.046,-0.151l0.048,-0.15l0.05,-0.15l0.051,-0.148l0.053,-0.148l0.055,-0.147l0.056,-0.146l0.059,-0.145l0.06,-0.144l0.062,-0.144l0.063,-0.142l0.065,-0.142l0.067,-0.141l0.068,-0.139l0.07,-0.139l0.072,-0.138l0.073,-0.137l0.075,-0.135l0.077,-0.135l0.078,-0.134l0.079,-0.133l0.081,-0.131l0.083,-0.131l0.084,-0.13l0.086,-0.128l0.087,-0.128l0.089,-0.126l0.09,-0.125l0.092,-0.124l0.093,-0.123l0.095,-0.122l0.095,-0.12l0.098,-0.12l0.099,-0.118l0.1,-0.117l0.101,-0.116l0.103,-0.114l0.104,-0.114l0.106,-0.112l0.107,-0.111l0.108,-0.109l0.109,-0.108l0.111,-0.107l0.112,-0.106l0.114,-0.104l0.114,-0.103l0.116,-0.101l0.117,-0.1l0.118,-0.099l0.12,-0.098l0.12,-0.095l0.122,-0.095l0.123,-0.093l0.124,-0.092l0.125,-0.09l0.126,-0.089l0.128,-0.087l0.128,-0.086l0.13,-0.084l0.13,-0.083l0.132,-0.081l0.133,-0.079l0.134,-0.078l0.135,-0.077l0.135,-0.075l0.137,-0.073l0.138,-0.072l0.139,-0.07l0.139,-0.068l0.141,-0.067l0.142,-0.065l0.142,-0.063l0.144,-0.062l0.144,-0.06l0.145,-0.059l0.146,-0.056l0.147,-0.055l0.148,-0.053l0.148,-0.051l0.15,-0.05l0.15,-0.048l0.151,-0.046l0.152,-0.044l0.076,-0.021l0.076,-0.021l0.077,-0.021l0.077,-0.02l0.076,-0.019l0.078,-0.019l0.077,-0.019l0.077,-0.018l0.078,-0.018l0.078,-0.017l0.078,-0.017l0.078,-0.016l0.078,-0.016l0.079,-0.015l0.078,-0.015l0.079,-0.014l0.079,-0.014l0.08,-0.014l0.079,-0.013l0.079,-0.012l0.08,-0.012l0.08,-0.011l0.08,-0.011l0.08,-0.011l0.08,-0.01l0.081,-0.009l0.08,-0.009l0.081,-0.009l0.081,-0.008l0.081,-0.007l0.081,-0.007l0.081,-0.006l0.082,-0.006l0.082,-0.006l0.081,-0.005l0.082,-0.004l0.082,-0.004l0.082,-0.003l0.083,-0.003l0.082,-0.003l0.082,-0.002l0.083,-0.001l0.083,-0.001l0.083,0l0.083,0l0.082,0.001l0.083,0.001l0.083,0.002l0.082,0.003l0.082,0.003l0.082,0.003l0.082,0.004l0.082,0.004l0.082,0.005l0.082,0.006l0.081,0.006l0.081,0.006l0.082,0.007l0.081,0.007l0.08,0.008l0.081,0.009l0.081,0.009l0.08,0.009l0.081,0.01l0.08,0.011l0.08,0.011l0.079,0.011l0.08,0.012l0.08,0.012l0.079,0.013l0.079,0.014l0.079,0.014l0.079,0.014l0.079,0.015l0.078,0.015l0.079,0.016l0.078,0.016l0.078,0.017l0.078,0.017l0.077,0.018l0.078,0.018l0.077,0.019l0.077,0.019l0.077,0.019l0.077,0.02l0.076,0.021l0.077,0.021l0.076,0.021l0.152,0.044l0.151,0.046l0.15,0.048l0.149,0.05l0.149,0.051l0.147,0.053l0.147,0.055l0.146,0.056l0.146,0.059l0.144,0.06l0.143,0.062l0.143,0.063l0.141,0.065l0.141,0.067l0.14,0.068l0.139,0.07l0.137,0.072l0.137,0.073l0.136,0.075l0.135,0.077l0.134,0.078l0.132,0.079l0.132,0.081l0.131,0.083l0.129,0.084l0.129,0.086l0.127,0.087l0.127,0.089l0.125,0.09l0.124,0.092l0.123,0.093l0.121,0.095l0.121,0.096l0.119,0.097l0.119,0.099l0.117,0.1l0.115,0.101l0.115,0.103l0.113,0.104l0.112,0.106l0.111,0.107l0.11,0.108l0.108,0.109l0.107,0.111l0.105,0.112l0.104,0.114l0.103,0.114l0.102,0.116l0.1,0.117l0.099,0.118l0.097,0.12l0.096,0.12l0.095,0.122l0.093,0.123l0.091,0.124l0.09,0.125l0.089,0.126l0.087,0.128l0.086,0.128l0.084,0.13l0.083,0.131l0.081,0.131l0.08,0.133l0.078,0.134l0.076,0.135l0.075,0.135l0.074,0.137l0.071,0.138l0.07,0.139l0.069,0.139l0.066,0.141l0.066,0.142l0.063,0.142l0.062,0.144l0.06,0.144l0.058,0.145l0.057,0.146l0.055,0.147l0.053,0.148l0.051,0.148l0.05,0.15l0.047,0.15l0.046,0.151l0.044,0.152l0.022,0.076l0.021,0.076l0.02,0.077l0.02,0.077l0.02,0.076l0.019,0.078l0.019,0.077l0.018,0.077l0.017,0.078l0.018,0.078l0.016,0.078l0.017,0.078l0.015,0.078l0.016,0.079l0.015,0.078l0.014,0.079l0.014,0.079l0.013,0.08l0.013,0.079l0.013,0.079l0.011,0.08l0.012,0.08l0.011,0.08l0.01,0.08l0.01,0.08l0.01,0.081l0.009,0.08l0.008,0.081l0.008,0.081l0.008,0.081l0.007,0.081l0.006,0.081l0.006,0.082l0.005,0.082l0.005,0.081l0.005,0.082l0.004,0.082l0.003,0.082l0.003,0.083l0.002,0.082l0.002,0.082l0.001,0.083l0.001,0.083l0,0.083l0,0.083l-0.001,0.082l-0.001,0.083l-0.002,0.083l-0.002,0.082l-0.003,0.082l-0.003,0.082l-0.004,0.082l-0.005,0.082l-0.005,0.082l-0.005,0.082l-0.006,0.081l-0.006,0.081l-0.007,0.082l-0.008,0.081l-0.008,0.081l-0.008,0.08l-0.009,0.081l-0.01,0.08l-0.01,0.081l-0.01,0.08l-0.011,0.08l-0.012,0.08l-0.011,0.079l-0.013,0.08l-0.013,0.079l-0.013,0.079l-0.014,0.079l-0.014,0.079l-0.015,0.079l-0.016,0.078l-0.015,0.079l-0.017,0.078l-0.016,0.078l-0.018,0.078l-0.017,0.077l-0.018,0.078l-0.019,0.077l-0.019,0.077l-0.02,0.077l-0.02,0.077l-0.02,0.076l-0.021,0.077l-0.022,0.076l-0.044,0.152l-0.046,0.151l-0.047,0.15l-0.05,0.149l-0.051,0.149l-0.053,0.147l-0.055,0.147l-0.057,0.146l-0.058,0.146l-0.06,0.144l-0.062,0.143l-0.063,0.143l-0.066,0.141l-0.066,0.141l-0.069,0.14l-0.07,0.139l-0.071,0.137l-0.074,0.137l-0.075,0.136l-0.076,0.135l-0.078,0.134l-0.08,0.132l-0.081,0.132l-0.083,0.131l-0.084,0.129l-0.086,0.129l-0.087,0.127l-0.089,0.127l-0.09,0.125l-0.091,0.124l-0.093,0.123l-0.095,0.121l-0.096,0.121l-0.097,0.119l-0.099,0.119l-0.1,0.117l-0.102,0.115l-0.103,0.115l-0.104,0.113l-0.105,0.112l-0.107,0.111l-0.108,0.11l-0.11,0.108l-0.111,0.107l-0.112,0.105l-0.113,0.104l-0.115,0.103l-0.115,0.102l-0.117,0.1l-0.119,0.099l-0.119,0.097l-0.121,0.096l-0.121,0.095l-0.123,0.093l-0.124,0.091l-0.125,0.09l-0.127,0.089l-0.127,0.087l-0.129,0.086l-0.129,0.084l-0.131,0.083l-0.132,0.081l-0.132,0.08l-0.134,0.078l-0.135,0.076l-0.136,0.075l-0.137,0.074l-0.137,0.071l-0.139,0.07l-0.14,0.069l-0.141,0.066l-0.141,0.066l-0.143,0.063l-0.143,0.062l-0.144,0.06l-0.146,0.058l-0.146,0.057l-0.147,0.055l-0.147,0.053l-0.149,0.051l-0.149,0.05l-0.15,0.047l-0.151,0.046l-0.152,0.044l-0.076,0.022l-0.077,0.021l-0.076,0.02l-0.077,0.02l-0.077,0.02l-0.077,0.019l-0.077,0.019l-0.078,0.018l-0.077,0.017l-0.078,0.018l-0.078,0.016l-0.078,0.017l-0.079,0.015l-0.078,0.016l-0.079,0.015l-0.079,0.014l-0.079,0.014l-0.079,0.013l-0.079,0.013l-0.08,0.013l-0.08,0.011l-0.079,0.012l-0.08,0.011l-0.08,0.01l-0.081,0.01l-0.08,0.01l-0.081,0.009l-0.081,0.008l-0.08,0.008l-0.081,0.008l-0.082,0.007l-0.081,0.006l-0.081,0.006l-0.082,0.005l-0.082,0.005l-0.082,0.005l-0.082,0.004l-0.082,0.003l-0.082,0.003l-0.082,0.002l-0.083,0.002l-0.083,0.001l-0.082,0.001l-0.083,0l-0.083,0l-0.083,-0.001l-0.083,-0.001l-0.082,-0.002l-0.082,-0.002l-0.083,-0.003l-0.082,-0.003l-0.082,-0.004l-0.082,-0.005l-0.081,-0.005l-0.082,-0.005l-0.082,-0.006l-0.081,-0.006l-0.081,-0.007l-0.081,-0.008l-0.081,-0.008l-0.081,-0.008l-0.08,-0.009l-0.081,-0.01l-0.08,-0.01l-0.08,-0.01l-0.08,-0.011l-0.08,-0.012l-0.08,-0.011l-0.079,-0.013l-0.079,-0.013l-0.08,-0.013l-0.079,-0.014l-0.079,-0.014l-0.078,-0.015l-0.079,-0.016l-0.078,-0.015l-0.078,-0.017l-0.078,-0.016l-0.078,-0.018l-0.078,-0.017l-0.077,-0.018l-0.077,-0.019l-0.078,-0.019l-0.076,-0.02l-0.077,-0.02l-0.077,-0.02l-0.076,-0.021l-0.076,-0.022l-0.152,-0.044l-0.151,-0.046l-0.15,-0.047l-0.15,-0.05l-0.148,-0.051l-0.148,-0.053l-0.147,-0.055l-0.146,-0.057l-0.145,-0.058l-0.144,-0.06l-0.144,-0.062l-0.142,-0.063l-0.142,-0.066l-0.141,-0.066l-0.139,-0.069l-0.139,-0.07l-0.138,-0.071l-0.137,-0.074l-0.135,-0.075l-0.135,-0.076l-0.134,-0.078l-0.133,-0.08l-0.132,-0.081l-0.13,-0.083l-0.13,-0.084l-0.128,-0.086l-0.128,-0.087l-0.126,-0.089l-0.125,-0.09l-0.124,-0.091l-0.123,-0.093l-0.122,-0.095l-0.12,-0.096l-0.12,-0.097l-0.118,-0.099l-0.117,-0.1l-0.116,-0.102l-0.114,-0.103l-0.114,-0.104l-0.112,-0.105l-0.111,-0.107l-0.109,-0.108l-0.108,-0.11l-0.107,-0.111l-0.106,-0.112l-0.104,-0.113l-0.103,-0.115l-0.101,-0.115l-0.1,-0.117l-0.099,-0.119l-0.098,-0.119l-0.095,-0.121l-0.095,-0.121l-0.093,-0.123l-0.092,-0.124l-0.09,-0.125l-0.089,-0.127l-0.087,-0.127l-0.086,-0.129l-0.084,-0.129l-0.083,-0.131l-0.081,-0.132l-0.079,-0.132l-0.078,-0.134l-0.077,-0.135l-0.075,-0.136l-0.073,-0.137l-0.072,-0.137l-0.07,-0.139l-0.068,-0.14l-0.067,-0.141l-0.065,-0.141l-0.063,-0.143l-0.062,-0.143l-0.06,-0.144l-0.059,-0.146l-0.056,-0.146l-0.055,-0.147l-0.053,-0.147l-0.051,-0.149l-0.05,-0.149l-0.048,-0.15l-0.046,-0.151l-0.044,-0.152l-0.021,-0.076l-0.021,-0.077l-0.021,-0.076l-0.02,-0.077l-0.019,-0.077ZM-6.912,6.414l0.021,0.076l0.021,0.076l0.021,0.076l0.044,0.151l0.046,0.151l0.047,0.149l0.05,0.149l0.051,0.148l0.053,0.148l0.055,0.146l0.056,0.145l0.058,0.145l0.06,0.144l0.061,0.143l0.064,0.142l0.065,0.141l0.066,0.14l0.068,0.139l0.07,0.139l0.072,0.137l0.073,0.136l0.074,0.136l0.076,0.134l0.078,0.133l0.08,0.133l0.08,0.131l0.083,0.13l0.084,0.129l0.085,0.128l0.087,0.127l0.089,0.126l0.089,0.125l0.092,0.124l0.093,0.122l0.094,0.122l0.095,0.12l0.097,0.119l0.099,0.118l0.1,0.116l0.101,0.116l0.102,0.114l0.104,0.113l0.105,0.111l0.107,0.111l0.108,0.109l0.109,0.108l0.11,0.106l0.112,0.105l0.113,0.104l0.114,0.103l0.115,0.101l0.117,0.1l0.118,0.098l0.119,0.097l0.12,0.096l0.121,0.094l0.123,0.093l0.123,0.091l0.125,0.09l0.126,0.088l0.127,0.087l0.128,0.086l0.129,0.084l0.131,0.082l0.131,0.081l0.132,0.079l0.133,0.078l0.135,0.076l0.135,0.075l0.137,0.073l0.137,0.071l0.138,0.07l0.139,0.068l0.141,0.067l0.141,0.065l0.142,0.063l0.143,0.062l0.143,0.059l0.145,0.059l0.146,0.056l0.146,0.055l0.147,0.053l0.148,0.051l0.149,0.049l0.15,0.048l0.15,0.046l0.152,0.044l0.076,0.021l0.076,0.021l0.076,0.02l0.076,0.02l0.077,0.02l0.077,0.019l0.077,0.018l0.077,0.018l0.077,0.018l0.078,0.017l0.078,0.017l0.078,0.016l0.078,0.016l0.078,0.015l0.078,0.015l0.079,0.014l0.079,0.014l0.079,0.013l0.079,0.013l0.079,0.013l0.079,0.011l0.08,0.012l0.08,0.011l0.079,0.01l0.08,0.01l0.081,0.01l0.08,0.008l0.08,0.009l0.081,0.008l0.081,0.007l0.081,0.007l0.081,0.007l0.081,0.006l0.081,0.005l0.082,0.005l0.081,0.004l0.082,0.004l0.082,0.004l0.082,0.002l0.082,0.003l0.082,0.002l0.083,0.001l0.082,0.001l0.083,0l0.082,0l0.083,-0.001l0.082,-0.001l0.083,-0.002l0.082,-0.003l0.082,-0.002l0.081,-0.004l0.082,-0.004l0.082,-0.004l0.081,-0.005l0.082,-0.005l0.081,-0.006l0.081,-0.007l0.081,-0.007l0.08,-0.007l0.081,-0.008l0.081,-0.009l0.08,-0.008l0.08,-0.01l0.08,-0.01l0.08,-0.01l0.08,-0.011l0.079,-0.012l0.08,-0.011l0.079,-0.013l0.079,-0.013l0.079,-0.013l0.079,-0.014l0.078,-0.014l0.079,-0.015l0.078,-0.015l0.078,-0.016l0.078,-0.016l0.077,-0.017l0.078,-0.017l0.077,-0.018l0.078,-0.018l0.077,-0.018l0.076,-0.019l0.077,-0.02l0.077,-0.02l0.076,-0.02l0.076,-0.021l0.076,-0.021l0.151,-0.044l0.151,-0.046l0.149,-0.048l0.149,-0.049l0.148,-0.051l0.147,-0.053l0.147,-0.055l0.145,-0.056l0.145,-0.059l0.144,-0.059l0.143,-0.062l0.142,-0.063l0.141,-0.065l0.14,-0.067l0.139,-0.068l0.139,-0.07l0.137,-0.071l0.136,-0.073l0.136,-0.075l0.134,-0.076l0.133,-0.078l0.133,-0.079l0.131,-0.081l0.13,-0.082l0.129,-0.084l0.128,-0.086l0.127,-0.087l0.126,-0.088l0.125,-0.09l0.124,-0.091l0.122,-0.093l0.122,-0.094l0.12,-0.096l0.119,-0.097l0.118,-0.098l0.116,-0.1l0.116,-0.101l0.114,-0.103l0.113,-0.104l0.111,-0.105l0.111,-0.106l0.109,-0.108l0.108,-0.109l0.106,-0.111l0.105,-0.111l0.104,-0.113l0.103,-0.114l0.101,-0.116l0.1,-0.116l0.098,-0.118l0.097,-0.119l0.096,-0.12l0.094,-0.122l0.093,-0.122l0.091,-0.124l0.09,-0.125l0.088,-0.126l0.087,-0.127l0.086,-0.128l0.084,-0.129l0.082,-0.13l0.081,-0.131l0.079,-0.133l0.078,-0.133l0.076,-0.134l0.075,-0.136l0.073,-0.136l0.071,-0.137l0.07,-0.139l0.068,-0.139l0.067,-0.14l0.065,-0.141l0.063,-0.142l0.062,-0.143l0.059,-0.144l0.059,-0.145l0.056,-0.145l0.055,-0.146l0.053,-0.148l0.051,-0.148l0.049,-0.149l0.048,-0.149l0.046,-0.151l0.044,-0.151l0.021,-0.076l0.021,-0.076l0.02,-0.076l0.02,-0.077l0.02,-0.076l0.019,-0.077l0.018,-0.077l0.018,-0.078l0.018,-0.077l0.017,-0.077l0.017,-0.078l0.016,-0.078l0.016,-0.078l0.015,-0.078l0.015,-0.079l0.014,-0.078l0.014,-0.079l0.013,-0.079l0.013,-0.079l0.013,-0.079l0.011,-0.08l0.012,-0.079l0.011,-0.08l0.01,-0.08l0.01,-0.08l0.009,-0.08l0.009,-0.08l0.009,-0.081l0.008,-0.081l0.007,-0.08l0.007,-0.081l0.007,-0.081l0.006,-0.081l0.005,-0.082l0.005,-0.081l0.004,-0.082l0.004,-0.081l0.004,-0.082l0.002,-0.082l0.003,-0.082l0.002,-0.083l0.001,-0.082l0.001,-0.083l0,-0.082l0,-0.083l-0.001,-0.082l-0.001,-0.083l-0.002,-0.082l-0.003,-0.082l-0.002,-0.082l-0.004,-0.082l-0.004,-0.082l-0.004,-0.081l-0.005,-0.082l-0.005,-0.081l-0.006,-0.081l-0.007,-0.081l-0.007,-0.081l-0.007,-0.081l-0.008,-0.081l-0.009,-0.08l-0.009,-0.08l-0.009,-0.08l-0.01,-0.081l-0.01,-0.079l-0.011,-0.08l-0.012,-0.08l-0.011,-0.079l-0.013,-0.079l-0.013,-0.079l-0.013,-0.079l-0.014,-0.079l-0.014,-0.079l-0.015,-0.078l-0.015,-0.078l-0.016,-0.078l-0.016,-0.078l-0.017,-0.078l-0.017,-0.078l-0.018,-0.077l-0.018,-0.077l-0.018,-0.077l-0.019,-0.077l-0.02,-0.077l-0.02,-0.076l-0.02,-0.076l-0.021,-0.076l-0.021,-0.076l-0.044,-0.152l-0.046,-0.15l-0.048,-0.15l-0.049,-0.149l-0.051,-0.148l-0.053,-0.147l-0.055,-0.146l-0.056,-0.146l-0.059,-0.145l-0.059,-0.143l-0.062,-0.143l-0.063,-0.142l-0.065,-0.141l-0.067,-0.141l-0.068,-0.139l-0.07,-0.138l-0.071,-0.137l-0.073,-0.137l-0.075,-0.135l-0.076,-0.135l-0.078,-0.133l-0.079,-0.132l-0.081,-0.131l-0.082,-0.131l-0.084,-0.129l-0.086,-0.128l-0.087,-0.127l-0.088,-0.126l-0.09,-0.125l-0.091,-0.123l-0.093,-0.123l-0.094,-0.121l-0.096,-0.12l-0.097,-0.119l-0.098,-0.118l-0.1,-0.117l-0.101,-0.115l-0.103,-0.114l-0.104,-0.113l-0.105,-0.112l-0.106,-0.11l-0.108,-0.109l-0.109,-0.108l-0.111,-0.107l-0.111,-0.105l-0.113,-0.104l-0.114,-0.102l-0.116,-0.101l-0.116,-0.1l-0.118,-0.099l-0.119,-0.097l-0.12,-0.095l-0.122,-0.094l-0.122,-0.093l-0.124,-0.092l-0.125,-0.089l-0.126,-0.089l-0.127,-0.087l-0.128,-0.085l-0.129,-0.084l-0.13,-0.083l-0.131,-0.08l-0.133,-0.08l-0.133,-0.078l-0.134,-0.076l-0.136,-0.074l-0.136,-0.073l-0.137,-0.072l-0.139,-0.07l-0.139,-0.068l-0.14,-0.066l-0.141,-0.065l-0.142,-0.064l-0.143,-0.061l-0.144,-0.06l-0.145,-0.058l-0.145,-0.056l-0.147,-0.055l-0.147,-0.053l-0.148,-0.051l-0.149,-0.05l-0.149,-0.047l-0.151,-0.046l-0.151,-0.044l-0.076,-0.021l-0.076,-0.021l-0.076,-0.021l-0.077,-0.02l-0.077,-0.019l-0.076,-0.019l-0.077,-0.019l-0.078,-0.018l-0.077,-0.017l-0.078,-0.018l-0.077,-0.016l-0.078,-0.016l-0.078,-0.016l-0.078,-0.015l-0.079,-0.015l-0.078,-0.015l-0.079,-0.013l-0.079,-0.014l-0.079,-0.013l-0.079,-0.012l-0.08,-0.012l-0.079,-0.011l-0.08,-0.011l-0.08,-0.011l-0.08,-0.01l-0.08,-0.009l-0.08,-0.009l-0.081,-0.008l-0.081,-0.008l-0.08,-0.008l-0.081,-0.007l-0.081,-0.006l-0.081,-0.006l-0.082,-0.005l-0.081,-0.005l-0.082,-0.005l-0.082,-0.004l-0.081,-0.003l-0.082,-0.003l-0.082,-0.002l-0.083,-0.002l-0.082,-0.001l-0.083,-0.001l-0.082,0l-0.083,0l-0.082,0.001l-0.083,0.001l-0.082,0.002l-0.082,0.002l-0.082,0.003l-0.082,0.003l-0.082,0.004l-0.081,0.005l-0.082,0.005l-0.081,0.005l-0.081,0.006l-0.081,0.006l-0.081,0.007l-0.081,0.008l-0.081,0.008l-0.08,0.008l-0.08,0.009l-0.081,0.009l-0.08,0.01l-0.079,0.011l-0.08,0.011l-0.08,0.011l-0.079,0.012l-0.079,0.012l-0.079,0.013l-0.079,0.014l-0.079,0.013l-0.079,0.015l-0.078,0.015l-0.078,0.015l-0.078,0.016l-0.078,0.016l-0.078,0.016l-0.078,0.018l-0.077,0.017l-0.077,0.018l-0.077,0.019l-0.077,0.019l-0.077,0.019l-0.076,0.02l-0.076,0.021l-0.076,0.021l-0.076,0.021l-0.152,0.044l-0.15,0.046l-0.15,0.047l-0.149,0.05l-0.148,0.051l-0.147,0.053l-0.146,0.055l-0.146,0.056l-0.145,0.058l-0.143,0.06l-0.143,0.061l-0.142,0.064l-0.141,0.065l-0.141,0.066l-0.139,0.068l-0.138,0.07l-0.137,0.072l-0.137,0.073l-0.135,0.074l-0.135,0.076l-0.133,0.078l-0.132,0.08l-0.131,0.08l-0.131,0.083l-0.129,0.084l-0.128,0.085l-0.127,0.087l-0.126,0.089l-0.125,0.089l-0.123,0.092l-0.123,0.093l-0.121,0.094l-0.12,0.095l-0.119,0.097l-0.118,0.099l-0.117,0.1l-0.115,0.101l-0.114,0.102l-0.113,0.104l-0.112,0.105l-0.11,0.107l-0.109,0.108l-0.108,0.109l-0.107,0.11l-0.105,0.112l-0.104,0.113l-0.102,0.114l-0.101,0.115l-0.1,0.117l-0.099,0.118l-0.097,0.119l-0.095,0.12l-0.094,0.121l-0.093,0.123l-0.092,0.123l-0.089,0.125l-0.089,0.126l-0.087,0.127l-0.085,0.128l-0.084,0.129l-0.083,0.131l-0.08,0.131l-0.08,0.132l-0.078,0.133l-0.076,0.135l-0.074,0.135l-0.073,0.137l-0.072,0.137l-0.07,0.138l-0.068,0.139l-0.066,0.141l-0.065,0.141l-0.064,0.142l-0.061,0.143l-0.06,0.143l-0.058,0.145l-0.056,0.146l-0.055,0.146l-0.053,0.147l-0.051,0.148l-0.05,0.149l-0.047,0.15l-0.046,0.15l-0.044,0.152l-0.021,0.076l-0.021,0.076l-0.021,0.076l-0.02,0.076l-0.019,0.077l-0.019,0.077l-0.019,0.077l-0.018,0.077l-0.017,0.077l-0.018,0.078l-0.016,0.078l-0.016,0.078l-0.016,0.078l-0.015,0.078l-0.015,0.078l-0.015,0.079l-0.013,0.079l-0.014,0.079l-0.013,0.079l-0.012,0.079l-0.012,0.079l-0.011,0.08l-0.011,0.08l-0.011,0.079l-0.01,0.081l-0.009,0.08l-0.009,0.08l-0.008,0.08l-0.008,0.081l-0.008,0.081l-0.007,0.081l-0.006,0.081l-0.006,0.081l-0.005,0.081l-0.005,0.082l-0.005,0.081l-0.004,0.082l-0.003,0.082l-0.003,0.082l-0.002,0.082l-0.002,0.082l-0.001,0.083l-0.001,0.082l0,0.083l0,0.082l0.001,0.083l0.001,0.082l0.002,0.083l0.002,0.082l0.003,0.082l0.003,0.082l0.004,0.081l0.005,0.082l0.005,0.081l0.005,0.082l0.006,0.081l0.006,0.081l0.007,0.081l0.008,0.08l0.008,0.081l0.008,0.081l0.009,0.08l0.009,0.08l0.01,0.08l0.011,0.08l0.011,0.08l0.011,0.079l0.012,0.08l0.012,0.079l0.013,0.079l0.014,0.079l0.013,0.079l0.015,0.078l0.015,0.079l0.015,0.078l0.016,0.078l0.016,0.078l0.016,0.078l0.018,0.077l0.017,0.077l0.018,0.078l0.019,0.077l0.019,0.077l0.019,0.076l0.02,0.077Z" style="fill:#fffffa;"/>
        </g>
        <g id="late_evening_normal" transform="matrix(-1.42394,-0.563725,0.563725,-1.42394,55.9861,42.5048)">
            <path d="M17.609,-6.019c-2.265,-3.004 -5.561,-5.064 -9.254,-5.782l-0.466,2.396c3.101,0.602 5.869,2.332 7.771,4.855l1.949,-1.469Z" style="fill:#0075b9;"/>
        </g>
    </g>
</svg>
