<?xml version="1.0" encoding="UTF-8" standalone="no"?>
<!DOCTYPE svg PUBLIC "-//W3C//DTD SVG 1.1//EN" "http://www.w3.org/Graphics/SVG/1.1/DTD/svg11.dtd">
<svg width="18px" height="18px" version="1.1" xmlns="http://www.w3.org/2000/svg" xmlns:xlink="http://www.w3.org/1999/xlink" xml:space="preserve" style="fill-rule:evenodd;clip-rule:evenodd;stroke-linecap:round;stroke-linejoin:round;stroke-miterlimit:1.41421;">
    <g transform="matrix(1.23174,0,0,1.23007,-2.08564,-2.07061)">
        <g transform="matrix(1.00221,0,0,1.01105,-0.04013,-0.195159)">
            <path d="M12.615,2.869c-1.093,-0.631 -2.333,-0.963 -3.595,-0.963l0,1.114c1.067,0 2.114,0.28 3.038,0.813l0.557,-0.964Z" style="fill:#000;"/>
        </g>
        <g transform="matrix(1.00221,0,0,1.01105,-0.04013,-0.195159)">
            <path d="M12.615,2.869c-1.093,-0.631 -2.333,-0.963 -3.595,-0.963l0,1.114c1.067,0 2.114,0.28 3.038,0.813l0.557,-0.964Z" style="fill:#000;"/>
        </g>
        <g transform="matrix(0.708666,0.708666,-0.714923,0.714923,9.10962,-3.8943)">
            <path d="M12.615,2.869c-1.093,-0.631 -2.333,-0.963 -3.595,-0.963l0,1.114c1.067,0 2.114,0.28 3.038,0.813l0.557,-0.964Z" style="fill:#000;"/>
        </g>
        <g transform="matrix(3.33067e-16,1.00221,-1.01105,3.33067e-16,18.1952,-0.04013)">
            <path d="M12.615,2.869c-1.093,-0.631 -2.333,-0.963 -3.595,-0.963l0,1.114c1.067,0 2.114,0.28 3.038,0.813l0.557,-0.964Z" style="fill:#000;"/>
        </g>
        <g transform="matrix(-0.708666,0.708666,-0.714923,-0.714923,21.8943,9.10962)">
            <path d="M12.615,2.869c-1.093,-0.631 -2.333,-0.963 -3.595,-0.963l0,1.114c1.067,0 2.114,0.28 3.038,0.813l0.557,-0.964Z" style="fill:#000;"/>
        </g>
        <g transform="matrix(-1.00221,6.66134e-16,-6.66134e-16,-1.01105,18.0401,18.1952)">
            <path d="M12.615,2.869c-1.093,-0.631 -2.333,-0.963 -3.595,-0.963l0,1.114c1.067,0 2.114,0.28 3.038,0.813l0.557,-0.964Z" style="fill:#000;"/>
        </g>
        <g transform="matrix(-0.708666,-0.708666,0.714923,-0.714923,8.89038,21.8943)">
            <path d="M12.615,2.869c-1.093,-0.631 -2.333,-0.963 -3.595,-0.963l0,1.114c1.067,0 2.114,0.28 3.038,0.813l0.557,-0.964Z" style="fill:#000;"/>
        </g>
        <g transform="matrix(0,-1.00221,1.01105,1.11022e-16,-0.195159,18.0401)">
            <path d="M12.615,2.869c-1.093,-0.631 -2.333,-0.963 -3.595,-0.963l0,1.114c1.067,0 2.114,0.28 3.038,0.813l0.557,-0.964Z" style="fill:#000;"/>
        </g>
        <g transform="matrix(0.708666,-0.708666,0.714923,0.714923,-3.8943,8.89038)">
            <path d="M12.615,2.869c-1.093,-0.631 -2.333,-0.963 -3.595,-0.963l0,1.114c1.067,0 2.114,0.28 3.038,0.813l0.557,-0.964Z" style="fill:#000;"/>
        </g>
        <g transform="matrix(1.07543,0,0,1.07543,-2.94343,-1.68317)">
            <circle cx="11.106" cy="9.934" r="5.692" style="fill:#fff;stroke-width:0.76px;stroke:#fff;"/>
        </g>
        <g transform="matrix(1,0,0,0.623017,-0.341864,4.97862)">
            <rect x="8.808" y="10.396" width="1.069" height="4.725" style="fill:#000;stroke-width:0.1px;stroke:#000;"/>
        </g>
        <g transform="matrix(0.512678,-0.367457,0.473934,0.661234,-0.0409888,7.2869)">
            <path d="M7.055,6.54c0.382,0 1.146,1.457 1.146,2.089c0,0.633 -0.513,1.146 -1.146,1.146c-0.632,0 -1.146,-0.513 -1.146,-1.146c0,-0.632 0.764,-2.089 1.146,-2.089Z" style="fill:#000;stroke-width:0.11px;stroke:#000;"/>
        </g>
        <g transform="matrix(0.512678,-0.367457,0.473934,0.661234,-0.0409888,5.01949)">
            <path d="M7.055,6.54c0.382,0 1.146,1.457 1.146,2.089c0,0.633 -0.513,1.146 -1.146,1.146c-0.632,0 -1.146,-0.513 -1.146,-1.146c0,-0.632 0.764,-2.089 1.146,-2.089Z" style="fill:#000;stroke-width:0.11px;stroke:#000;"/>
        </g>
        <g transform="matrix(0.512678,-0.367457,0.473934,0.661234,-0.0409888,2.75208)">
            <path d="M7.055,6.54c0.382,0 1.146,1.457 1.146,2.089c0,0.633 -0.513,1.146 -1.146,1.146c-0.632,0 -1.146,-0.513 -1.146,-1.146c0,-0.632 0.764,-2.089 1.146,-2.089Z" style="fill:#000;stroke-width:0.11px;stroke:#000;"/>
        </g>
        <g transform="matrix(-0.512678,-0.367457,-0.473934,0.661234,18.041,7.2869)">
            <path d="M7.055,6.54c0.382,0 1.146,1.457 1.146,2.089c0,0.633 -0.513,1.146 -1.146,1.146c-0.632,0 -1.146,-0.513 -1.146,-1.146c0,-0.632 0.764,-2.089 1.146,-2.089Z" style="fill:#000;stroke-width:0.11px;stroke:#000;"/>
        </g>
        <g transform="matrix(-0.512678,-0.367457,-0.473934,0.661234,18.041,5.01949)">
            <path d="M7.055,6.54c0.382,0 1.146,1.457 1.146,2.089c0,0.633 -0.513,1.146 -1.146,1.146c-0.632,0 -1.146,-0.513 -1.146,-1.146c0,-0.632 0.764,-2.089 1.146,-2.089Z" style="fill:#000;stroke-width:0.11px;stroke:#000;"/>
        </g>
        <g transform="matrix(-0.512678,-0.367457,-0.473934,0.661234,18.041,2.75208)">
            <path d="M7.055,6.54c0.382,0 1.146,1.457 1.146,2.089c0,0.633 -0.513,1.146 -1.146,1.146c-0.632,0 -1.146,-0.513 -1.146,-1.146c0,-0.632 0.764,-2.089 1.146,-2.089Z" style="fill:#000;stroke-width:0.11px;stroke:#000;"/>
        </g>
        <g transform="matrix(0.630764,0.000163911,-0.000211406,0.813537,4.5517,-2.44226)">
            <path d="M7.055,6.54c0.382,0 1.146,1.457 1.146,2.089c0,0.633 -0.513,1.146 -1.146,1.146c-0.632,0 -1.146,-0.513 -1.146,-1.146c0,-0.632 0.764,-2.089 1.146,-2.089Z" style="fill:#000;stroke-width:0.11px;stroke:#000;"/>
        </g>
    </g>
</svg>
