<?xml version="1.0" encoding="UTF-8" standalone="no"?>
<!DOCTYPE svg PUBLIC "-//W3C//DTD SVG 1.1//EN" "http://www.w3.org/Graphics/SVG/1.1/DTD/svg11.dtd">
<svg width="24px" height="24px" version="1.1" xmlns="http://www.w3.org/2000/svg" xmlns:xlink="http://www.w3.org/1999/xlink" xml:space="preserve" style="fill-rule:evenodd;clip-rule:evenodd;stroke-linecap:round;stroke-linejoin:round;stroke-miterlimit:1.41421;">
    <g transform="matrix(1.63254,0,0,1.63254,-2.6929,-2.6929)">
        <g transform="matrix(1.00221,0,0,1.01105,-0.04013,-0.195159)">
            <path d="M12.615,2.869c-1.093,-0.631 -2.333,-0.963 -3.595,-0.963l0,1.114c1.067,0 2.114,0.28 3.038,0.813l0.557,-0.964Z" style="fill:#000;"/>
        </g>
        <g transform="matrix(1.00221,0,0,1.01105,-0.04013,-0.195159)">
            <path d="M12.615,2.869c-1.093,-0.631 -2.333,-0.963 -3.595,-0.963l0,1.114c1.067,0 2.114,0.28 3.038,0.813l0.557,-0.964Z" style="fill:#000;"/>
        </g>
        <g transform="matrix(0.708666,0.708666,-0.714923,0.714923,9.10962,-3.8943)">
            <path d="M12.615,2.869c-1.093,-0.631 -2.333,-0.963 -3.595,-0.963l0,1.114c1.067,0 2.114,0.28 3.038,0.813l0.557,-0.964Z" style="fill:#000;"/>
        </g>
        <g transform="matrix(3.33067e-16,1.00221,-1.01105,3.33067e-16,18.1952,-0.04013)">
            <path d="M12.615,2.869c-1.093,-0.631 -2.333,-0.963 -3.595,-0.963l0,1.114c1.067,0 2.114,0.28 3.038,0.813l0.557,-0.964Z" style="fill:#000;"/>
        </g>
        <g transform="matrix(-0.708666,0.708666,-0.714923,-0.714923,21.8943,9.10962)">
            <path d="M12.615,2.869c-1.093,-0.631 -2.333,-0.963 -3.595,-0.963l0,1.114c1.067,0 2.114,0.28 3.038,0.813l0.557,-0.964Z" style="fill:#000;"/>
        </g>
        <g transform="matrix(-1.00221,6.66134e-16,-6.66134e-16,-1.01105,18.0401,18.1952)">
            <path d="M12.615,2.869c-1.093,-0.631 -2.333,-0.963 -3.595,-0.963l0,1.114c1.067,0 2.114,0.28 3.038,0.813l0.557,-0.964Z" style="fill:#000;"/>
        </g>
        <g transform="matrix(-0.708666,-0.708666,0.714923,-0.714923,8.89038,21.8943)">
            <path d="M12.615,2.869c-1.093,-0.631 -2.333,-0.963 -3.595,-0.963l0,1.114c1.067,0 2.114,0.28 3.038,0.813l0.557,-0.964Z" style="fill:#000;"/>
        </g>
        <g transform="matrix(0,-1.00221,1.01105,1.11022e-16,-0.195159,18.0401)">
            <path d="M12.615,2.869c-1.093,-0.631 -2.333,-0.963 -3.595,-0.963l0,1.114c1.067,0 2.114,0.28 3.038,0.813l0.557,-0.964Z" style="fill:#000;"/>
        </g>
        <g transform="matrix(0.708666,-0.708666,0.714923,0.714923,-3.8943,8.89038)">
            <path d="M12.615,2.869c-1.093,-0.631 -2.333,-0.963 -3.595,-0.963l0,1.114c1.067,0 2.114,0.28 3.038,0.813l0.557,-0.964Z" style="fill:#000;"/>
        </g>
        <g transform="matrix(1.07543,0,0,1.07543,-2.94343,-1.68317)">
            <circle cx="11.106" cy="9.934" r="5.692" style="fill:#fff;stroke-width:0.57px;stroke:#fff;"/>
        </g>
        <g transform="matrix(1,0,0,1,0.103996,0.234469)">
            <path d="M14.319,11.362l-10.846,0l4.071,-7.216l1.972,3.94l1.285,-1.89l3.518,5.166Z" style="fill:#000;"/>
        </g>
    </g>
</svg>
