<?xml version="1.0" encoding="UTF-8" standalone="no"?>
<!DOCTYPE svg PUBLIC "-//W3C//DTD SVG 1.1//EN" "http://www.w3.org/Graphics/SVG/1.1/DTD/svg11.dtd">
<svg width="39px" height="15px" version="1.1" xmlns="http://www.w3.org/2000/svg" xmlns:xlink="http://www.w3.org/1999/xlink" xml:space="preserve" style="fill-rule:evenodd;clip-rule:evenodd;stroke-linecap:round;stroke-linejoin:round;stroke-miterlimit:1.41421;">
    <g transform="matrix(1,0,0,1,-0.738526,-0.1561)">
        <g transform="matrix(0.0537634,0,0,0.0537634,-0.243842,0)">
            <g transform="matrix(1,0,0,1,-0.542648,-6.38153)">
                <path d="M21.637,123.965c17.778,13.139 106.038,63.841 106.038,63.841c0,0 -18.485,22.216 1.884,43.56c15.455,16.194 41.607,20.495 60.749,22.965c18.708,2.413 71.475,6.787 89.396,4.899c45.421,-4.787 76.277,-16.759 76.277,-16.759c0,0 286.686,12.415 349.805,10.365c12.238,-0.398 28.906,-22.667 28.906,-22.667l-268.214,-23.359l41.627,-27.458l39.358,-33.29l8.497,-33.826c0,0 99.473,6.04 121.321,5.717c4.136,-0.061 9.767,-7.656 9.767,-7.656l-124.833,-14.371l18.575,-85.894c0,0 -23.361,-1.25 -29.472,5.213c-13.089,13.841 -49.06,77.838 -49.06,77.838l-88.227,-5.603c0,0 -16.646,4.181 -12.305,5.128c15.768,3.438 87.918,14.626 87.918,14.626l-11.992,14.752c0,0 -138.562,-15.464 -180.459,-18.887c-11.421,-0.933 -34.52,3.065 -43.635,10.009c-19.769,15.062 -36.716,36.826 -36.716,36.826l-30.534,9.17l-123.518,-49.393c0,0 -54.762,4.197 -41.153,14.254Z" style="fill:#0d0d0d;stroke-width:0.75px;stroke:#000;"/>
            </g>
            <g transform="matrix(1,0,0,1,-0.542648,-6.38153)">
                <path d="M256.569,117.714c-9.919,6.068 -31.847,31.162 -31.847,31.162c0,0 22.319,1.976 33.061,4.936c15.68,4.321 61.021,20.99 61.021,20.99l9.072,-50.752c0,0 -31.754,-10.527 -43.638,-11.583c-9.351,-0.831 -19.661,0.348 -27.669,5.247Z" style="fill:#f2f2f2;stroke-width:0.75px;stroke:#000;"/>
            </g>
            <g transform="matrix(1,0,0,1,-0.542648,-6.38153)">
                <path d="M332.618,126.573c0,0 -6.439,45.234 -6.439,48.229c0,2.995 60.137,-7.097 60.137,-7.097l-8.377,-34.793l-45.321,-6.339Z" style="fill:#f2f2f2;stroke-width:0.75px;stroke:#000;"/>
            </g>
            <g transform="matrix(0.983931,0,0,1.49201,4.09311,-121.461)">
                <ellipse cx="146.535" cy="217.246" rx="42.407" ry="42.444" style="fill:#000;"/>
                <path d="M147.628,174.816l1.087,0.041l1.08,0.069l1.073,0.095l1.065,0.122l1.056,0.148l1.048,0.174l1.04,0.2l1.03,0.225l1.02,0.249l1.011,0.274l1.001,0.298l0.991,0.323l0.979,0.345l0.969,0.369l0.957,0.392l0.945,0.414l0.933,0.436l0.92,0.458l0.908,0.48l0.895,0.501l0.881,0.521l0.868,0.543l0.853,0.562l0.839,0.582l0.824,0.602l0.808,0.621l0.794,0.639l0.777,0.658l0.762,0.677l0.745,0.694l0.728,0.711l0.711,0.729l0.693,0.746l0.676,0.762l0.658,0.778l0.639,0.794l0.62,0.81l0.601,0.825l0.582,0.839l0.562,0.854l0.541,0.868l0.522,0.882l0.5,0.896l0.479,0.908l0.458,0.922l0.436,0.934l0.414,0.946l0.391,0.957l0.368,0.97l0.346,0.98l0.322,0.991l0.298,1.002l0.273,1.012l0.25,1.022l0.224,1.031l0.2,1.04l0.173,1.049l0.148,1.057l0.122,1.066l0.096,1.074l0.068,1.08l0.042,1.088l0.013,1.095l-0.013,1.095l-0.042,1.088l-0.068,1.081l-0.096,1.073l-0.122,1.066l-0.148,1.057l-0.173,1.049l-0.2,1.041l-0.224,1.031l-0.25,1.021l-0.273,1.012l-0.298,1.002l-0.322,0.991l-0.346,0.981l-0.368,0.969l-0.391,0.958l-0.414,0.946l-0.436,0.934l-0.458,0.921l-0.479,0.909l-0.5,0.895l-0.522,0.882l-0.541,0.868l-0.562,0.854l-0.582,0.84l-0.601,0.825l-0.62,0.809l-0.639,0.794l-0.658,0.778l-0.676,0.763l-0.693,0.745l-0.711,0.729l-0.728,0.712l-0.745,0.694l-0.762,0.676l-0.777,0.658l-0.794,0.64l-0.808,0.621l-0.824,0.601l-0.839,0.582l-0.853,0.563l-0.868,0.542l-0.881,0.522l-0.895,0.5l-0.908,0.48l-0.92,0.458l-0.933,0.437l-0.945,0.414l-0.957,0.391l-0.969,0.369l-0.979,0.346l-0.991,0.322l-1.001,0.298l-1.011,0.274l-1.02,0.25l-1.03,0.224l-1.04,0.2l-1.048,0.174l-1.056,0.148l-1.065,0.122l-1.073,0.096l-1.08,0.068l-1.087,0.042l-1.093,0.013l-1.094,-0.013l-1.087,-0.042l-1.08,-0.068l-1.073,-0.096l-1.064,-0.122l-1.057,-0.148l-1.048,-0.174l-1.039,-0.2l-1.031,-0.224l-1.02,-0.25l-1.011,-0.274l-1.001,-0.298l-0.99,-0.322l-0.98,-0.346l-0.968,-0.369l-0.957,-0.391l-0.946,-0.414l-0.933,-0.437l-0.92,-0.458l-0.908,-0.48l-0.895,-0.5l-0.881,-0.522l-0.867,-0.542l-0.854,-0.563l-0.838,-0.582l-0.824,-0.601l-0.809,-0.621l-0.794,-0.64l-0.777,-0.658l-0.762,-0.676l-0.745,-0.694l-0.728,-0.712l-0.711,-0.729l-0.693,-0.745l-0.676,-0.763l-0.657,-0.778l-0.64,-0.794l-0.62,-0.809l-0.601,-0.825l-0.582,-0.84l-0.562,-0.854l-0.541,-0.868l-0.521,-0.882l-0.501,-0.895l-0.479,-0.909l-0.458,-0.921l-0.436,-0.934l-0.413,-0.946l-0.392,-0.958l-0.368,-0.969l-0.346,-0.981l-0.321,-0.991l-0.298,-1.002l-0.274,-1.012l-0.25,-1.021l-0.224,-1.031l-0.199,-1.041l-0.174,-1.049l-0.148,-1.057l-0.122,-1.066l-0.095,-1.073l-0.069,-1.081l-0.041,-1.088l-0.014,-1.095l0.014,-1.095l0.041,-1.088l0.069,-1.08l0.095,-1.074l0.122,-1.066l0.148,-1.057l0.174,-1.049l0.199,-1.04l0.224,-1.031l0.25,-1.022l0.274,-1.012l0.298,-1.002l0.321,-0.991l0.346,-0.98l0.368,-0.97l0.392,-0.957l0.413,-0.946l0.436,-0.934l0.458,-0.922l0.479,-0.908l0.501,-0.896l0.521,-0.882l0.541,-0.868l0.562,-0.854l0.582,-0.839l0.601,-0.825l0.62,-0.81l0.64,-0.794l0.657,-0.778l0.676,-0.762l0.693,-0.746l0.711,-0.729l0.728,-0.711l0.745,-0.694l0.762,-0.677l0.777,-0.658l0.794,-0.639l0.809,-0.621l0.824,-0.602l0.838,-0.582l0.854,-0.562l0.867,-0.543l0.881,-0.521l0.895,-0.501l0.908,-0.48l0.92,-0.458l0.933,-0.436l0.946,-0.414l0.957,-0.392l0.968,-0.369l0.98,-0.345l0.99,-0.323l1.001,-0.298l1.011,-0.274l1.02,-0.249l1.031,-0.225l1.039,-0.2l1.048,-0.174l1.057,-0.148l1.064,-0.122l1.073,-0.095l1.08,-0.069l1.087,-0.041l1.094,-0.014l1.093,0.014ZM145.636,178.165l-0.892,0.034l-0.887,0.056l-0.881,0.079l-0.876,0.1l-0.871,0.122l-0.866,0.144l-0.862,0.166l-0.857,0.187l-0.852,0.208l-0.848,0.23l-0.843,0.251l-0.838,0.273l-0.833,0.293l-0.828,0.315l-0.821,0.337l-0.815,0.357l-0.809,0.378l-0.801,0.399l-0.794,0.419l-0.786,0.44l-0.778,0.461l-0.769,0.48l-0.759,0.501l-0.749,0.52l-0.739,0.539l-0.728,0.559l-0.716,0.577l-0.704,0.596l-0.692,0.615l-0.679,0.632l-0.665,0.65l-0.652,0.668l-0.636,0.685l-0.623,0.701l-0.606,0.719l-0.591,0.734l-0.575,0.75l-0.558,0.765l-0.54,0.78l-0.523,0.796l-0.506,0.809l-0.486,0.824l-0.468,0.838l-0.449,0.851l-0.429,0.863l-0.41,0.877l-0.388,0.889l-0.368,0.901l-0.347,0.912l-0.326,0.924l-0.303,0.935l-0.281,0.945l-0.259,0.956l-0.236,0.965l-0.212,0.975l-0.188,0.984l-0.165,0.993l-0.14,1.002l-0.116,1.009l-0.09,1.018l-0.065,1.024l-0.039,1.032l-0.013,1.039l0.013,1.039l0.039,1.032l0.065,1.025l0.09,1.017l0.116,1.01l0.14,1.001l0.165,0.993l0.188,0.984l0.212,0.975l0.236,0.966l0.259,0.955l0.281,0.946l0.303,0.934l0.326,0.924l0.347,0.913l0.368,0.9l0.388,0.889l0.41,0.877l0.429,0.864l0.449,0.851l0.468,0.837l0.486,0.824l0.506,0.81l0.523,0.795l0.54,0.78l0.558,0.766l0.575,0.75l0.591,0.734l0.606,0.718l0.623,0.701l0.636,0.685l0.652,0.668l0.665,0.65l0.679,0.633l0.692,0.614l0.704,0.596l0.716,0.578l0.728,0.558l0.739,0.54l0.749,0.52l0.759,0.5l0.769,0.481l0.778,0.46l0.786,0.44l0.794,0.419l0.801,0.399l0.809,0.379l0.815,0.357l0.821,0.336l0.828,0.315l0.833,0.294l0.838,0.272l0.843,0.252l0.848,0.229l0.852,0.209l0.857,0.187l0.862,0.165l0.866,0.144l0.871,0.122l0.876,0.101l0.881,0.078l0.887,0.056l0.892,0.034l0.899,0.012l0.898,-0.012l0.892,-0.034l0.887,-0.056l0.881,-0.078l0.876,-0.101l0.871,-0.122l0.866,-0.144l0.862,-0.165l0.857,-0.187l0.853,-0.209l0.847,-0.229l0.844,-0.252l0.838,-0.272l0.832,-0.294l0.828,-0.315l0.821,-0.336l0.815,-0.357l0.809,-0.379l0.802,-0.399l0.794,-0.419l0.786,-0.44l0.777,-0.46l0.769,-0.481l0.759,-0.5l0.749,-0.52l0.739,-0.54l0.728,-0.558l0.716,-0.578l0.704,-0.596l0.692,-0.614l0.679,-0.633l0.665,-0.65l0.652,-0.668l0.637,-0.685l0.622,-0.701l0.606,-0.718l0.591,-0.734l0.575,-0.75l0.558,-0.766l0.54,-0.78l0.524,-0.795l0.505,-0.81l0.487,-0.824l0.468,-0.837l0.448,-0.851l0.43,-0.864l0.409,-0.877l0.389,-0.889l0.368,-0.9l0.347,-0.913l0.325,-0.924l0.303,-0.934l0.282,-0.946l0.258,-0.955l0.236,-0.966l0.212,-0.975l0.189,-0.984l0.164,-0.993l0.14,-1.001l0.116,-1.01l0.09,-1.017l0.065,-1.025l0.039,-1.032l0.014,-1.039l-0.014,-1.039l-0.039,-1.032l-0.065,-1.024l-0.09,-1.018l-0.116,-1.01l-0.14,-1.001l-0.164,-0.993l-0.189,-0.984l-0.212,-0.975l-0.236,-0.965l-0.258,-0.956l-0.282,-0.945l-0.303,-0.935l-0.325,-0.924l-0.347,-0.912l-0.368,-0.901l-0.389,-0.889l-0.409,-0.877l-0.43,-0.863l-0.448,-0.851l-0.468,-0.838l-0.487,-0.824l-0.505,-0.809l-0.524,-0.796l-0.54,-0.78l-0.558,-0.765l-0.575,-0.75l-0.591,-0.734l-0.606,-0.719l-0.622,-0.701l-0.637,-0.685l-0.652,-0.668l-0.665,-0.65l-0.679,-0.632l-0.692,-0.615l-0.704,-0.596l-0.716,-0.577l-0.728,-0.559l-0.739,-0.539l-0.749,-0.52l-0.759,-0.501l-0.769,-0.48l-0.777,-0.461l-0.786,-0.44l-0.794,-0.419l-0.802,-0.399l-0.809,-0.378l-0.815,-0.357l-0.821,-0.337l-0.828,-0.315l-0.832,-0.293l-0.838,-0.273l-0.844,-0.251l-0.847,-0.23l-0.853,-0.208l-0.857,-0.187l-0.862,-0.166l-0.866,-0.144l-0.871,-0.122l-0.876,-0.1l-0.881,-0.079l-0.887,-0.056l-0.892,-0.034l-0.898,-0.011l-0.899,0.011Z" style="fill:#fff;"/>
            </g>
        </g>
    </g>
</svg>
