<?xml version="1.0" encoding="UTF-8" standalone="no"?>
<!DOCTYPE svg PUBLIC "-//W3C//DTD SVG 1.1//EN" "http://www.w3.org/Graphics/SVG/1.1/DTD/svg11.dtd">
<svg width="40px" height="9px" version="1.1" xmlns="http://www.w3.org/2000/svg" xmlns:xlink="http://www.w3.org/1999/xlink" xml:space="preserve" style="fill-rule:evenodd;clip-rule:evenodd;stroke-linejoin:round;stroke-miterlimit:1.41421;">
    <g transform="matrix(1,0,0,1,-0.46062,-1.3646)">
        <g transform="matrix(0.82519,0,0,0.82519,-0.807488,-0.764303)">
            <g transform="matrix(0.0672043,0,0,0.0672043,0,0)">
                <path d="M40.687,47.878c0,0 -33.825,1.005 -8.272,11.074c45.115,17.775 274.392,84.73 274.392,84.73c0,0 -7.673,2.395 -22.752,14.282c-8.927,7.038 -22.679,23.248 -19.709,28.251c2.97,5.002 23.928,4.778 35.422,1.996c19.536,-4.729 77.586,-30.536 77.586,-30.536c0,0 281.322,2.076 339.687,0.177c5.206,-0.17 10.502,-11.571 10.502,-11.571l-323.792,-6.474c0,0 54.098,-16.523 88.194,-26.819c2.659,-0.803 6.109,-2.208 5.924,-4.952c-1.131,-16.823 -3.586,-48.938 -3.586,-48.938c0,0 21.859,1.127 29.192,0.227c5.329,-0.654 17.775,-8.986 17.775,-8.986l-95.783,-11.95c0,0 -15.257,4.251 -11.084,7.211c4.173,2.96 33.356,10.228 33.356,10.228l-12.818,54.62c0,0 -33.22,8.068 -51.204,12.198c-27.584,6.335 -71.069,9.788 -68.048,8.064l-294.982,-82.832Z" style="fill:#000;"/>
            </g>
            <g transform="matrix(0.0672043,0,0,0.0672043,0,0)">
                <path d="M301.598,149.719c-8.859,4.576 -28.311,21.405 -27.052,23.378c1.259,1.973 16.135,2.966 16.135,2.966l57.74,-23.096c0,0 4.998,-15.446 -14.149,-15.552c-7.43,-0.041 -16.045,3.715 -32.674,12.304Z" style="fill:#f2f2f2;"/>
                <path d="M335.152,137.431l0.845,0.038l0.811,0.059l0.778,0.079l0.745,0.099l0.713,0.118l0.682,0.136l0.651,0.154l0.621,0.17l0.592,0.187l0.562,0.202l0.535,0.217l0.508,0.23l0.481,0.244l0.455,0.257l0.429,0.269l0.405,0.279l0.381,0.291l0.357,0.3l0.335,0.309l0.312,0.317l0.292,0.326l0.27,0.332l0.251,0.338l0.231,0.344l0.212,0.349l0.195,0.353l0.177,0.356l0.161,0.36l0.144,0.361l0.129,0.362l0.114,0.363l0.188,0.726l0.136,0.719l0.091,0.708l0.052,0.691l0.016,0.668l-0.013,0.639l-0.037,0.605l-0.056,0.565l-0.07,0.52l-0.077,0.469l-0.158,0.763l-0.126,0.49l-0.051,0.174l-57.74,23.096l-0.642,-0.046l-1.702,-0.14l-2.429,-0.232l-1.383,-0.151l-1.439,-0.174l-1.454,-0.197l-1.427,-0.22l-1.359,-0.243l-1.248,-0.267l-0.569,-0.142l-0.526,-0.147l-0.478,-0.154l-0.424,-0.159l-0.365,-0.165l-0.301,-0.17l-0.232,-0.177l-0.088,-0.09l-0.069,-0.092l-0.044,-0.103l-0.014,-0.124l0.014,-0.145l0.043,-0.165l0.07,-0.184l0.097,-0.203l0.272,-0.459l0.37,-0.526l0.462,-0.589l0.549,-0.645l0.631,-0.698l0.706,-0.746l0.776,-0.788l0.84,-0.825l0.898,-0.857l0.951,-0.885l0.998,-0.908l1.039,-0.925l1.074,-0.938l2.231,-1.893l1.146,-0.946l1.159,-0.938l1.165,-0.926l1.166,-0.909l1.161,-0.887l1.151,-0.86l1.134,-0.827l1.113,-0.791l1.085,-0.749l1.052,-0.701l1.012,-0.65l0.968,-0.593l0.917,-0.531l0.86,-0.464l3.026,-1.554l2.848,-1.442l2.68,-1.332l2.522,-1.223l2.374,-1.117l2.237,-1.01l2.108,-0.906l1.991,-0.804l0.955,-0.364l0.929,-0.338l0.904,-0.314l0.881,-0.289l0.859,-0.265l0.838,-0.24l0.819,-0.216l0.801,-0.192l0.784,-0.169l0.768,-0.145l0.754,-0.121l0.741,-0.098l0.728,-0.075l0.718,-0.053l0.708,-0.03l0.701,-0.007l0.88,0.016ZM333.582,137.81l-0.697,0.029l-0.706,0.052l-0.717,0.074l-0.73,0.097l-0.743,0.119l-0.758,0.143l-0.775,0.167l-0.792,0.19l-0.811,0.214l-0.83,0.238l-0.853,0.262l-0.874,0.287l-0.898,0.312l-0.924,0.337l-0.948,0.361l-1.983,0.801l-2.102,0.903l-2.23,1.008l-2.37,1.114l-2.518,1.221l-2.677,1.331l-2.846,1.441l-3.021,1.552l-0.852,0.459l-0.908,0.526l-0.96,0.588l-1.006,0.645l-1.046,0.698l-1.081,0.746l-1.108,0.787l-1.131,0.825l-1.147,0.857l-1.158,0.885l-1.163,0.906l-1.163,0.924l-1.155,0.937l-1.143,0.942l-2.227,1.89l-1.071,0.935l-1.036,0.922l-0.994,0.905l-0.948,0.882l-0.894,0.854l-0.836,0.821l-0.771,0.783l-0.7,0.739l-0.624,0.69l-0.541,0.636l-0.451,0.574l-0.355,0.505l-0.255,0.432l-0.083,0.173l-0.057,0.149l-0.03,0.115l-0.007,0.074l0.003,0.027l0.004,0.008l0.025,0.034l0.051,0.052l0.188,0.143l0.263,0.149l0.337,0.153l0.403,0.151l0.462,0.148l0.514,0.144l0.558,0.139l1.235,0.264l1.347,0.241l1.419,0.219l1.448,0.197l1.434,0.173l1.378,0.15l2.424,0.232l1.698,0.139l0.551,0.04l57.482,-22.994l0.118,-0.461l0.155,-0.745l0.075,-0.456l0.067,-0.507l0.055,-0.552l0.036,-0.59l0.013,-0.623l-0.016,-0.649l-0.05,-0.671l-0.088,-0.686l-0.132,-0.695l-0.182,-0.704l-0.109,-0.346l-0.124,-0.349l-0.139,-0.347l-0.154,-0.345l-0.17,-0.342l-0.186,-0.339l-0.204,-0.334l-0.221,-0.329l-0.24,-0.324l-0.259,-0.318l-0.279,-0.312l-0.3,-0.305l-0.321,-0.296l-0.344,-0.288l-0.366,-0.28l-0.39,-0.269l-0.415,-0.26l-0.439,-0.248l-0.466,-0.236l-0.493,-0.224l-0.52,-0.211l-0.548,-0.197l-0.578,-0.182l-0.607,-0.166l-0.638,-0.151l-0.668,-0.133l-0.701,-0.116l-0.733,-0.098l-0.767,-0.078l-0.8,-0.058l-0.835,-0.037l-0.869,-0.016l-0.688,0.007Z" style="fill:#fff;"/>
            </g>
        </g>
    </g>
</svg>
